solid AnnenometerWire
facet normal -0.9659258262890685 0.25881904510251985 1.9636744492666968e-19
  outer loop
    vertex 124.18221960477756 -3.8729322666441774 0.0
    vertex 123.81358704573549 -4.762889990215875 -9.7
    vertex 123.81358704573549 -4.762889990215875 0.0
  endloop
endfacet
facet normal -0.8660254037844376 0.5000000000000017 -2.4411625565116935e-19
  outer loop
    vertex 123.81358704573549 -4.762889990215875 -9.7
    vertex 124.18221960477756 -3.8729322666441774 0.0
    vertex 124.18221960477756 -3.8729322666441774 -9.700000000000003
  endloop
endfacet
facet normal 0.9659258262890684 0.25881904510252 -4.74518195798416e-19
  outer loop
    vertex 117.05368700676424 -3.872932266644175 -9.700000000000003
    vertex 117.42231956580632 -4.762889990215872 0.0
    vertex 117.42231956580632 -4.762889990215872 -9.7
  endloop
endfacet
facet normal 0.866025403784438 0.500000000000001 -3.7588922628677153e-19
  outer loop
    vertex 117.42231956580632 -4.762889990215872 0.0
    vertex 117.05368700676424 -3.872932266644175 -9.700000000000003
    vertex 117.05368700676424 -3.872932266644175 0.0
  endloop
endfacet
facet normal -0.707106781186547 -0.7071067811865481 -3.2889775951675135e-19
  outer loop
    vertex 123.22717732834926 -0.3086659676375154 0.0
    vertex 122.4629533057709 0.27774374974870053 -9.7
    vertex 123.22717732834926 -0.3086659676375154 -9.700000000000003
  endloop
endfacet
facet normal -0.5000000000000012 -0.8660254037844379 -1.6444887975833757e-19
  outer loop
    vertex 122.4629533057709 0.27774374974870053 -9.7
    vertex 123.22717732834926 -0.3086659676375154 0.0
    vertex 122.4629533057709 0.27774374974870053 0.0
  endloop
endfacet
facet normal 1.0 3.118888463476414e-16 8.669422718206754e-20
  outer loop
    vertex 116.9279533057709 -2.917889990215875 -9.7
    vertex 117.05368700676424 -3.872932266644175 0.0
    vertex 117.05368700676424 -3.872932266644175 -9.700000000000003
  endloop
endfacet
facet normal 0.9659258262890685 0.2588190451025201 -4.745181957984161e-19
  outer loop
    vertex 117.05368700676424 -3.872932266644175 0.0
    vertex 116.9279533057709 -2.917889990215875 -9.7
    vertex 116.9279533057709 -2.917889990215875 0.0
  endloop
endfacet
facet normal -0.5000000000000011 -0.8660254037844379 -1.6444887975833742e-19
  outer loop
    vertex 122.4629533057709 0.27774374974870053 0.0
    vertex 121.57299558219921 0.6463763087907844 -9.7
    vertex 122.4629533057709 0.27774374974870053 -9.7
  endloop
endfacet
facet normal -0.25881904510252146 -0.9659258262890681 0.0
  outer loop
    vertex 121.57299558219921 0.6463763087907844 -9.7
    vertex 122.4629533057709 0.27774374974870053 0.0
    vertex 121.57299558219921 0.6463763087907844 0.0
  endloop
endfacet
facet normal -0.8660254037844383 -0.5000000000000007 5.263260286419822e-19
  outer loop
    vertex 123.81358704573549 -1.0728899902158804 0.0
    vertex 124.18221960477756 -1.9628477137875748 -9.7
    vertex 124.18221960477756 -1.9628477137875748 0.0
  endloop
endfacet
facet normal -0.9659258262890684 -0.2588190451025204 7.894038779120401e-19
  outer loop
    vertex 124.18221960477756 -1.9628477137875748 -9.7
    vertex 123.81358704573549 -1.0728899902158804 0.0
    vertex 123.81358704573549 -1.0728899902158804 -9.7
  endloop
endfacet
facet normal -0.25881904510252146 -0.9659258262890681 0.0
  outer loop
    vertex 121.57299558219921 0.6463763087907844 0.0
    vertex 120.6179533057709 0.7721100097841225 -9.7
    vertex 121.57299558219921 0.6463763087907844 -9.7
  endloop
endfacet
facet normal 0.0 -1.0 0.0
  outer loop
    vertex 120.6179533057709 0.7721100097841225 -9.7
    vertex 121.57299558219921 0.6463763087907844 0.0
    vertex 120.6179533057709 0.7721100097841225 0.0
  endloop
endfacet
facet normal 0.2588190451025203 -0.9659258262890684 -1.9636744492638272e-19
  outer loop
    vertex 119.6629110293426 0.6463763087907844 -9.7
    vertex 118.7729533057709 0.27774374974870336 0.0
    vertex 118.7729533057709 0.27774374974870336 -9.700000000000003
  endloop
endfacet
facet normal 0.500000000000001 -0.8660254037844382 7.139614574104704e-19
  outer loop
    vertex 118.7729533057709 0.27774374974870336 0.0
    vertex 119.6629110293426 0.6463763087907844 -9.7
    vertex 119.6629110293426 0.6463763087907844 0.0
  endloop
endfacet
facet normal 0.25881904510252146 0.9659258262890681 6.907749084003954e-19
  outer loop
    vertex 119.6629110293426 -6.482156289222534 0.0
    vertex 120.6179533057709 -6.607889990215872 -9.7
    vertex 119.6629110293426 -6.482156289222534 -9.7
  endloop
endfacet
facet normal 1.4525109129904451e-15 1.0 0.0
  outer loop
    vertex 120.6179533057709 -6.607889990215872 -9.7
    vertex 119.6629110293426 -6.482156289222534 0.0
    vertex 120.6179533057709 -6.607889990215872 0.0
  endloop
endfacet
facet normal -0.8660254037844377 0.5000000000000018 -2.441162556511694e-19
  outer loop
    vertex 123.81358704573549 -4.762889990215875 0.0
    vertex 123.22717732834926 -5.527114012794234 -9.700000000000003
    vertex 123.22717732834926 -5.527114012794234 0.0
  endloop
endfacet
facet normal -0.7071067811865465 0.7071067811865486 4.698452017593519e-19
  outer loop
    vertex 123.22717732834926 -5.527114012794234 -9.700000000000003
    vertex 123.81358704573549 -4.762889990215875 0.0
    vertex 123.81358704573549 -4.762889990215875 -9.7
  endloop
endfacet
facet normal -0.9659258262890684 -0.2588190451025205 7.894038779120406e-19
  outer loop
    vertex 124.18221960477756 -1.9628477137875748 0.0
    vertex 124.3079533057709 -2.917889990215875 -9.700000000000003
    vertex 124.3079533057709 -2.917889990215875 0.0
  endloop
endfacet
facet normal -1.0 -7.128887916517531e-17 9.862896951198166e-20
  outer loop
    vertex 124.3079533057709 -2.917889990215875 -9.700000000000003
    vertex 124.18221960477756 -1.9628477137875748 0.0
    vertex 124.18221960477756 -1.9628477137875748 -9.7
  endloop
endfacet
facet normal 0.8660254037844382 0.5000000000000009 -3.7588922628677196e-19
  outer loop
    vertex 117.42231956580632 -4.762889990215872 -9.7
    vertex 118.00872928319255 -5.527114012794234 0.0
    vertex 118.00872928319255 -5.527114012794234 -9.7
  endloop
endfacet
facet normal 0.7071067811865462 0.7071067811865488 0.0
  outer loop
    vertex 118.00872928319255 -5.527114012794234 0.0
    vertex 117.42231956580632 -4.762889990215872 -9.7
    vertex 117.42231956580632 -4.762889990215872 0.0
  endloop
endfacet
facet normal -0.707106781186547 -0.7071067811865481 -3.2889775951675135e-19
  outer loop
    vertex 123.22717732834926 -0.3086659676375154 0.0
    vertex 123.81358704573549 -1.0728899902158804 -9.7
    vertex 123.81358704573549 -1.0728899902158804 0.0
  endloop
endfacet
facet normal -0.8660254037844383 -0.5000000000000008 5.263260286419815e-19
  outer loop
    vertex 123.81358704573549 -1.0728899902158804 -9.7
    vertex 123.22717732834926 -0.3086659676375154 0.0
    vertex 123.22717732834926 -0.3086659676375154 -9.700000000000003
  endloop
endfacet
facet normal 0.8660254037844377 -0.5000000000000014 -1.6444887975857426e-19
  outer loop
    vertex 117.42231956580632 -1.0728899902158775 -9.7
    vertex 117.05368700676424 -1.9628477137875722 0.0
    vertex 117.05368700676424 -1.9628477137875722 -9.7
  endloop
endfacet
facet normal 0.9659258262890684 -0.2588190451025203 1.853231966937124e-19
  outer loop
    vertex 117.05368700676424 -1.9628477137875722 0.0
    vertex 117.42231956580632 -1.0728899902158775 -9.7
    vertex 117.42231956580632 -1.0728899902158775 0.0
  endloop
endfacet
facet normal 0.9659258262890684 -0.2588190451025203 1.853231966937124e-19
  outer loop
    vertex 117.05368700676424 -1.9628477137875722 -9.7
    vertex 116.9279533057709 -2.917889990215875 0.0
    vertex 116.9279533057709 -2.917889990215875 -9.7
  endloop
endfacet
facet normal 1.0 1.9604441770423192e-16 8.66942271820678e-20
  outer loop
    vertex 116.9279533057709 -2.917889990215875 0.0
    vertex 117.05368700676424 -1.9628477137875722 -9.7
    vertex 117.05368700676424 -1.9628477137875722 0.0
  endloop
endfacet
facet normal -0.5708574375454984 -0.8210491982816788 0.0
  outer loop
    vertex 109.2008045548609 -19.338873955849444 0.0
    vertex 105.33977107505389 -15.824366958196068 -9.7
    vertex 109.2008045548609 -19.338873955849444 -9.7
  endloop
endfacet
facet normal -0.7639091115358506 -0.645323848399009 0.0
  outer loop
    vertex 105.33977107505389 -15.824366958196068 -9.7
    vertex 109.2008045548609 -19.338873955849444 0.0
    vertex 105.33977107505389 -15.824366958196068 0.0
  endloop
endfacet
facet normal 0.338902772572942 0.9408214021494051 0.0
  outer loop
    vertex 127.39600875722975 15.898538052772233 0.0
    vertex 132.03510205668087 13.503093975417693 -9.7
    vertex 127.39600875722975 15.898538052772233 -9.7
  endloop
endfacet
facet normal 0.5708574375454997 0.8210491982816779 0.0
  outer loop
    vertex 132.03510205668087 13.503093975417693 -9.7
    vertex 127.39600875722975 15.898538052772233 0.0
    vertex 132.03510205668087 13.503093975417693 0.0
  endloop
endfacet
facet normal -0.9964781822415295 0.08385244371285272 0.0
  outer loop
    vertex 100.68838966094029 -1.240841115958847 0.0
    vertex 100.93342088633186 -6.456135802486969 -9.7
    vertex 100.93342088633186 -6.456135802486969 0.0
  endloop
endfacet
facet normal -0.9842266209719512 -0.17691229061355487 0.0
  outer loop
    vertex 100.93342088633186 -6.456135802486969 -9.7
    vertex 100.68838966094029 -1.240841115958847 0.0
    vertex 100.68838966094029 -1.240841115958847 -9.7
  endloop
endfacet
facet normal 0.17691229061355393 -0.9842266209719516 3.2939198895820722e-19
  outer loop
    vertex 124.15619911804198 -22.6024224096549 0.0
    vertex 118.94090443151386 -22.847453635046463 -9.7
    vertex 124.15619911804198 -22.6024224096549 -9.7
  endloop
endfacet
facet normal -0.08385244371285079 -0.9964781822415296 -2.4831870890037853e-18
  outer loop
    vertex 118.94090443151386 -22.847453635046463 -9.7
    vertex 124.15619911804198 -22.6024224096549 0.0
    vertex 118.94090443151386 -22.847453635046463 -7.395499077429651
  endloop
endfacet
facet normal -0.04008425092380932 -0.9991963034498661 -1.434482786584247e-18
  outer loop
    vertex 118.94090443151386 -22.847453635046463 -7.395499077429651
    vertex 124.15619911804198 -22.6024224096549 0.0
    vertex 118.94090443151386 -22.847453635046463 -2.2954990774296524
  endloop
endfacet
facet normal -0.04008425092380932 -0.9991963034498661 -1.434482786584247e-18
  outer loop
    vertex 118.94090443151386 -22.847453635046463 -2.2954990774296524
    vertex 124.15619911804198 -22.6024224096549 0.0
    vertex 118.94090443151386 -22.847453635046463 0.0
  endloop
endfacet
facet normal -0.9049016419945302 -0.42562074469603023 0.0
  outer loop
    vertex 102.51992046588028 -11.430304884136488 0.0
    vertex 105.33977107505389 -15.824366958196068 -9.7
    vertex 105.33977107505389 -15.824366958196068 0.0
  endloop
endfacet
facet normal -0.7639091115358506 -0.645323848399009 0.0
  outer loop
    vertex 105.33977107505389 -15.824366958196068 -9.7
    vertex 102.51992046588028 -11.430304884136488 0.0
    vertex 102.51992046588028 -11.430304884136488 -9.7
  endloop
endfacet
facet normal -0.4256207446960306 0.9049016419945299 0.0
  outer loop
    vertex 112.10553841185028 15.180142849674732 0.0
    vertex 117.0797074934998 16.766642429223154 -9.7
    vertex 112.10553841185028 15.180142849674732 -9.7
  endloop
endfacet
facet normal -0.17691229061355393 0.9842266209719516 0.0
  outer loop
    vertex 117.0797074934998 16.766642429223154 -9.7
    vertex 112.10553841185028 15.180142849674732 0.0
    vertex 117.0797074934998 16.766642429223154 0.0
  endloop
endfacet
facet normal -0.9408214021494052 0.3389027725729418 4.4982737356953286e-20
  outer loop
    vertex 101.8015252627828 3.8601654612429694 0.0
    vertex 100.68838966094029 -1.240841115958847 -9.7
    vertex 100.68838966094029 -1.240841115958847 0.0
  endloop
endfacet
facet normal -0.9964781822415295 0.08385244371285272 0.0
  outer loop
    vertex 100.68838966094029 -1.240841115958847 -9.7
    vertex 101.8015252627828 3.8601654612429694 0.0
    vertex 101.8015252627828 3.8601654612429694 -9.7
  endloop
endfacet
facet normal 0.5708574375454997 0.8210491982816779 0.0
  outer loop
    vertex 132.03510205668087 13.503093975417693 0.0
    vertex 135.8961355364879 9.98858697776432 -9.7
    vertex 132.03510205668087 13.503093975417693 -9.7
  endloop
endfacet
facet normal 0.7639091115358501 0.6453238483990098 -4.891589725061433e-18
  outer loop
    vertex 135.8961355364879 9.98858697776432 -9.7
    vertex 132.03510205668087 13.503093975417693 0.0
    vertex 135.8961355364879 9.98858697776432 0.0
  endloop
endfacet
facet normal 0.0 0.0 -1.0
  outer loop
    vertex 101.8015252627828 3.8601654612429694 -9.7
    vertex 100.93342088633186 -6.456135802486969 -9.7
    vertex 100.68838966094029 -1.240841115958847 -9.7
  endloop
endfacet
facet normal 0.0 0.0 -1.0
  outer loop
    vertex 100.93342088633186 -6.456135802486969 -9.7
    vertex 101.8015252627828 3.8601654612429694 -9.7
    vertex 102.51992046588028 -11.430304884136488 -9.7
  endloop
endfacet
facet normal 0.0 0.0 -1.0
  outer loop
    vertex 102.51992046588028 -11.430304884136488 -9.7
    vertex 101.8015252627828 3.8601654612429694 -9.7
    vertex 104.19696934013734 8.499258760694113 -9.7
  endloop
endfacet
facet normal 0.0 0.0 -1.0
  outer loop
    vertex 102.51992046588028 -11.430304884136488 -9.7
    vertex 104.19696934013734 8.499258760694113 -9.7
    vertex 105.33977107505389 -15.824366958196068 -9.7
  endloop
endfacet
facet normal 0.0 0.0 -1.0
  outer loop
    vertex 105.33977107505389 -15.824366958196068 -9.7
    vertex 104.19696934013734 8.499258760694113 -9.7
    vertex 107.71147633779071 12.360292240501144 -9.7
  endloop
endfacet
facet normal 0.0 0.0 -1.0
  outer loop
    vertex 105.33977107505389 -15.824366958196068 -9.7
    vertex 107.71147633779071 12.360292240501144 -9.7
    vertex 109.2008045548609 -19.338873955849444 -9.7
  endloop
endfacet
facet normal 0.0 0.0 -1.0
  outer loop
    vertex 109.2008045548609 -19.338873955849444 -9.7
    vertex 107.71147633779071 12.360292240501144 -9.7
    vertex 112.10553841185028 15.180142849674732 -9.7
  endloop
endfacet
facet normal 0.0 0.0 -1.0
  outer loop
    vertex 109.2008045548609 -19.338873955849444 -9.7
    vertex 112.10553841185028 15.180142849674732 -9.7
    vertex 113.83989785431206 -21.734318033203984 -9.7
  endloop
endfacet
facet normal 0.0 0.0 -1.0
  outer loop
    vertex 113.83989785431206 -21.734318033203984 -9.7
    vertex 112.10553841185028 15.180142849674732 -9.7
    vertex 117.0797074934998 16.766642429223154 -9.7
  endloop
endfacet
facet normal 0.0 0.0 -1.0
  outer loop
    vertex 113.83989785431206 -21.734318033203984 -9.7
    vertex 117.0797074934998 16.766642429223154 -9.7
    vertex 116.9279533057709 -2.917889990215875 -9.7
  endloop
endfacet
facet normal 0.0 0.0 -1.0
  outer loop
    vertex 116.9279533057709 -2.917889990215875 -9.7
    vertex 117.0797074934998 16.766642429223154 -9.7
    vertex 117.05368700676424 -1.9628477137875722 -9.7
  endloop
endfacet
facet normal 0.0 0.0 -1.0
  outer loop
    vertex 117.05368700676424 -1.9628477137875722 -9.7
    vertex 117.0797074934998 16.766642429223154 -9.7
    vertex 117.42231956580632 -1.0728899902158775 -9.7
  endloop
endfacet
facet normal 0.0 0.0 -1.0
  outer loop
    vertex 117.42231956580632 -1.0728899902158775 -9.7
    vertex 117.0797074934998 16.766642429223154 -9.7
    vertex 122.29500218002792 17.011673654614718 -9.7
  endloop
endfacet
facet normal 0.0 0.0 -1.0
  outer loop
    vertex 117.42231956580632 -1.0728899902158775 -9.7
    vertex 122.29500218002792 17.011673654614718 -9.7
    vertex 118.00872928319255 -0.3086659676375154 -9.700000000000003
  endloop
endfacet
facet normal 0.0 0.0 -1.0
  outer loop
    vertex 118.00872928319255 -0.3086659676375154 -9.700000000000003
    vertex 122.29500218002792 17.011673654614718 -9.7
    vertex 118.7729533057709 0.27774374974870336 -9.700000000000003
  endloop
endfacet
facet normal 0.0 0.0 -1.0
  outer loop
    vertex 118.7729533057709 0.27774374974870336 -9.700000000000003
    vertex 122.29500218002792 17.011673654614718 -9.7
    vertex 119.6629110293426 0.6463763087907844 -9.7
  endloop
endfacet
facet normal 0.0 0.0 -1.0
  outer loop
    vertex 119.6629110293426 0.6463763087907844 -9.7
    vertex 122.29500218002792 17.011673654614718 -9.7
    vertex 120.6179533057709 0.7721100097841225 -9.7
  endloop
endfacet
facet normal 0.0 0.0 -1.0
  outer loop
    vertex 120.6179533057709 0.7721100097841225 -9.7
    vertex 122.29500218002792 17.011673654614718 -9.7
    vertex 121.57299558219921 0.6463763087907844 -9.7
  endloop
endfacet
facet normal 0.0 0.0 -1.0
  outer loop
    vertex 121.57299558219921 0.6463763087907844 -9.7
    vertex 122.29500218002792 17.011673654614718 -9.7
    vertex 122.4629533057709 0.27774374974870053 -9.7
  endloop
endfacet
facet normal 0.0 0.0 -1.0
  outer loop
    vertex 122.4629533057709 0.27774374974870053 -9.7
    vertex 122.29500218002792 17.011673654614718 -9.7
    vertex 127.39600875722975 15.898538052772233 -9.7
  endloop
endfacet
facet normal 0.0 0.0 -1.0
  outer loop
    vertex 122.4629533057709 0.27774374974870053 -9.7
    vertex 127.39600875722975 15.898538052772233 -9.7
    vertex 123.22717732834926 -0.3086659676375154 -9.700000000000003
  endloop
endfacet
facet normal 0.0 0.0 -1.0
  outer loop
    vertex 123.22717732834926 -0.3086659676375154 -9.700000000000003
    vertex 127.39600875722975 15.898538052772233 -9.7
    vertex 123.81358704573549 -1.0728899902158804 -9.7
  endloop
endfacet
facet normal 0.0 0.0 -1.0
  outer loop
    vertex 123.81358704573549 -1.0728899902158804 -9.7
    vertex 127.39600875722975 15.898538052772233 -9.7
    vertex 124.18221960477756 -1.9628477137875748 -9.7
  endloop
endfacet
facet normal 0.0 0.0 -1.0
  outer loop
    vertex 124.18221960477756 -1.9628477137875748 -9.7
    vertex 127.39600875722975 15.898538052772233 -9.7
    vertex 124.3079533057709 -2.917889990215875 -9.700000000000003
  endloop
endfacet
facet normal 0.0 0.0 -1.0
  outer loop
    vertex 116.9279533057709 -2.917889990215875 -9.7
    vertex 118.94090443151386 -22.847453635046463 -9.7
    vertex 113.83989785431206 -21.734318033203984 -9.7
  endloop
endfacet
facet normal 0.0 0.0 -1.0
  outer loop
    vertex 118.94090443151386 -22.847453635046463 -9.7
    vertex 116.9279533057709 -2.917889990215875 -9.7
    vertex 117.05368700676424 -3.872932266644175 -9.700000000000003
  endloop
endfacet
facet normal 0.0 0.0 -1.0
  outer loop
    vertex 118.94090443151386 -22.847453635046463 -9.7
    vertex 117.05368700676424 -3.872932266644175 -9.700000000000003
    vertex 117.42231956580632 -4.762889990215872 -9.7
  endloop
endfacet
facet normal 0.0 0.0 -1.0
  outer loop
    vertex 118.94090443151386 -22.847453635046463 -9.7
    vertex 117.42231956580632 -4.762889990215872 -9.7
    vertex 118.00872928319255 -5.527114012794234 -9.7
  endloop
endfacet
facet normal 0.0 0.0 -1.0
  outer loop
    vertex 118.94090443151386 -22.847453635046463 -9.7
    vertex 118.00872928319255 -5.527114012794234 -9.7
    vertex 118.7729533057709 -6.11352373018045 -9.7
  endloop
endfacet
facet normal 0.0 0.0 -1.0
  outer loop
    vertex 118.94090443151386 -22.847453635046463 -9.7
    vertex 118.7729533057709 -6.11352373018045 -9.7
    vertex 119.6629110293426 -6.482156289222534 -9.7
  endloop
endfacet
facet normal 0.0 0.0 -1.0
  outer loop
    vertex 118.94090443151386 -22.847453635046463 -9.7
    vertex 119.6629110293426 -6.482156289222534 -9.7
    vertex 124.15619911804198 -22.6024224096549 -9.7
  endloop
endfacet
facet normal 0.0 0.0 -1.0
  outer loop
    vertex 124.15619911804198 -22.6024224096549 -9.7
    vertex 119.6629110293426 -6.482156289222534 -9.7
    vertex 120.6179533057709 -6.607889990215872 -9.7
  endloop
endfacet
facet normal 0.0 0.0 -1.0
  outer loop
    vertex 124.15619911804198 -22.6024224096549 -9.7
    vertex 120.6179533057709 -6.607889990215872 -9.7
    vertex 121.57299558219921 -6.482156289222536 -9.7
  endloop
endfacet
facet normal 0.0 0.0 -1.0
  outer loop
    vertex 124.15619911804198 -22.6024224096549 -9.7
    vertex 121.57299558219921 -6.482156289222536 -9.7
    vertex 122.4629533057709 -6.113523730180453 -9.700000000000003
  endloop
endfacet
facet normal 0.0 0.0 -1.0
  outer loop
    vertex 124.15619911804198 -22.6024224096549 -9.7
    vertex 122.4629533057709 -6.113523730180453 -9.700000000000003
    vertex 123.22717732834926 -5.527114012794234 -9.700000000000003
  endloop
endfacet
facet normal 0.0 0.0 -1.0
  outer loop
    vertex 124.15619911804198 -22.6024224096549 -9.7
    vertex 123.22717732834926 -5.527114012794234 -9.700000000000003
    vertex 123.81358704573549 -4.762889990215875 -9.7
  endloop
endfacet
facet normal 0.0 0.0 -1.0
  outer loop
    vertex 124.15619911804198 -22.6024224096549 -9.7
    vertex 123.81358704573549 -4.762889990215875 -9.7
    vertex 124.18221960477756 -3.8729322666441774 -9.700000000000003
  endloop
endfacet
facet normal 0.0 0.0 -1.0
  outer loop
    vertex 124.15619911804198 -22.6024224096549 -9.7
    vertex 124.18221960477756 -3.8729322666441774 -9.700000000000003
    vertex 129.1303681996915 -21.015922830106476 -9.7
  endloop
endfacet
facet normal 0.0 0.0 -1.0
  outer loop
    vertex 129.1303681996915 -21.015922830106476 -9.7
    vertex 124.18221960477756 -3.8729322666441774 -9.700000000000003
    vertex 124.3079533057709 -2.917889990215875 -9.700000000000003
  endloop
endfacet
facet normal 0.0 0.0 -1.0
  outer loop
    vertex 129.1303681996915 -21.015922830106476 -9.7
    vertex 124.3079533057709 -2.917889990215875 -9.700000000000003
    vertex 127.39600875722975 15.898538052772233 -9.7
  endloop
endfacet
facet normal 0.0 0.0 -1.0
  outer loop
    vertex 129.1303681996915 -21.015922830106476 -9.7
    vertex 127.39600875722975 15.898538052772233 -9.7
    vertex 132.03510205668087 13.503093975417693 -9.7
  endloop
endfacet
facet normal 0.0 0.0 -1.0
  outer loop
    vertex 129.1303681996915 -21.015922830106476 -9.7
    vertex 132.03510205668087 13.503093975417693 -9.7
    vertex 133.52443027375108 -18.196072220932894 -9.7
  endloop
endfacet
facet normal 0.0 0.0 -1.0
  outer loop
    vertex 133.52443027375108 -18.196072220932894 -9.7
    vertex 132.03510205668087 13.503093975417693 -9.7
    vertex 135.8961355364879 9.98858697776432 -9.7
  endloop
endfacet
facet normal 0.0 0.0 -1.0
  outer loop
    vertex 133.52443027375108 -18.196072220932894 -9.7
    vertex 135.8961355364879 9.98858697776432 -9.7
    vertex 137.03893727140445 -14.33503874112586 -9.7
  endloop
endfacet
facet normal 0.0 0.0 -1.0
  outer loop
    vertex 137.03893727140445 -14.33503874112586 -9.7
    vertex 135.8961355364879 9.98858697776432 -9.7
    vertex 138.7159861456615 5.594524903704735 -9.7
  endloop
endfacet
facet normal 0.0 0.0 -1.0
  outer loop
    vertex 137.03893727140445 -14.33503874112586 -9.7
    vertex 138.7159861456615 5.594524903704735 -9.7
    vertex 139.434381348759 -9.695945441674727 -9.7
  endloop
endfacet
facet normal 0.0 0.0 -1.0
  outer loop
    vertex 139.434381348759 -9.695945441674727 -9.7
    vertex 138.7159861456615 5.594524903704735 -9.7
    vertex 140.30248572520992 0.6203558220552107 -9.7
  endloop
endfacet
facet normal 0.0 0.0 -1.0
  outer loop
    vertex 139.434381348759 -9.695945441674727 -9.7
    vertex 140.30248572520992 0.6203558220552107 -9.7
    vertex 140.54751695060148 -4.594938864472906 -9.7
  endloop
endfacet
facet normal -0.17691229061355393 0.9842266209719516 0.0
  outer loop
    vertex 117.0797074934998 16.766642429223154 0.0
    vertex 122.29500218002792 17.011673654614718 -9.7
    vertex 117.0797074934998 16.766642429223154 -9.7
  endloop
endfacet
facet normal 0.08385244371285079 0.9964781822415296 0.0
  outer loop
    vertex 122.29500218002792 17.011673654614718 -9.7
    vertex 117.0797074934998 16.766642429223154 0.0
    vertex 122.29500218002792 17.011673654614718 0.0
  endloop
endfacet
facet normal 0.9842266209719516 0.1769122906135538 -8.313768331669339e-19
  outer loop
    vertex 140.30248572520992 0.6203558220552107 -9.7
    vertex 140.54751695060148 -4.594938864472906 0.0
    vertex 140.54751695060148 -4.594938864472906 -9.7
  endloop
endfacet
facet normal 0.9964781822415297 -0.08385244371285 0.0
  outer loop
    vertex 140.54751695060148 -4.594938864472906 0.0
    vertex 140.30248572520992 0.6203558220552107 -9.7
    vertex 140.30248572520992 0.6203558220552107 0.0
  endloop
endfacet
facet normal -0.8210491982816779 0.5708574375454996 -1.928028693211178e-19
  outer loop
    vertex 104.19696934013734 8.499258760694113 0.0
    vertex 107.62999404253088 12.270775881529659 -2.2954990774296524
    vertex 104.19696934013729 8.499258760694108 -2.2954990774296524
  endloop
endfacet
facet normal -0.7395131609481456 0.673142098508541 -4.715026356992505e-19
  outer loop
    vertex 107.62999404253088 12.270775881529659 -2.2954990774296524
    vertex 104.19696934013734 8.499258760694113 0.0
    vertex 107.71147633779071 12.360292240501144 0.0
  endloop
endfacet
facet normal -0.7395131609481456 0.673142098508541 -4.715026356992505e-19
  outer loop
    vertex 107.62999404253088 12.270775881529659 -2.2954990774296524
    vertex 107.71147633779071 12.360292240501144 0.0
    vertex 107.62999404253088 12.270775881529659 -7.395499077429651
  endloop
endfacet
facet normal -0.7395131609481456 0.673142098508541 -4.715026356992505e-19
  outer loop
    vertex 107.62999404253088 12.270775881529659 -7.395499077429651
    vertex 104.19696934013734 8.499258760694113 -9.7
    vertex 104.19696934013729 8.499258760694108 -7.395499077429651
  endloop
endfacet
facet normal -0.8210491982816779 0.5708574375454996 -1.928028693211178e-19
  outer loop
    vertex 104.19696934013734 8.499258760694113 -9.7
    vertex 107.62999404253088 12.270775881529659 -7.395499077429651
    vertex 107.71147633779071 12.360292240501144 -9.7
  endloop
endfacet
facet normal -0.6453238483990089 0.7639091115358508 -2.377856066780686e-19
  outer loop
    vertex 107.71147633779071 12.360292240501144 -9.7
    vertex 107.62999404253088 12.270775881529659 -7.395499077429651
    vertex 107.71147633779071 12.360292240501144 0.0
  endloop
endfacet
facet normal 0.9842266209719516 0.1769122906135538 -8.313768331669339e-19
  outer loop
    vertex 140.30248572520992 0.6203558220552107 -9.7
    vertex 140.26570343191625 0.7356797391946234 -7.395499077429651
    vertex 140.30248572520992 0.6203558220552107 0.0
  endloop
endfacet
facet normal 0.9527147381392362 0.3038661345597542 -1.6485285782171768e-18
  outer loop
    vertex 140.26570343191625 0.7356797391946234 -7.395499077429651
    vertex 140.30248572520992 0.6203558220552107 -9.7
    vertex 138.7159861456615 5.594524903704735 -9.7
  endloop
endfacet
facet normal 0.9527147381392362 0.3038661345597542 -1.6485285782171768e-18
  outer loop
    vertex 140.26570343191625 0.7356797391946234 -7.395499077429651
    vertex 138.7159861456615 5.594524903704735 -9.7
    vertex 138.7159861456615 5.594524903704735 -7.395499077429651
  endloop
endfacet
facet normal 0.9842266209719516 0.1769122906135538 -8.313768331669339e-19
  outer loop
    vertex 140.30248572520992 0.6203558220552107 0.0
    vertex 140.26570343191625 0.7356797391946234 -2.2954990774296524
    vertex 138.7159861456615 5.594524903704735 0.0
  endloop
endfacet
facet normal 0.9527147381392362 0.3038661345597542 -1.6485285782171768e-18
  outer loop
    vertex 140.26570343191625 0.7356797391946234 -2.2954990774296524
    vertex 140.30248572520992 0.6203558220552107 0.0
    vertex 140.26570343191625 0.7356797391946234 -7.395499077429651
  endloop
endfacet
facet normal 0.90490164199453 0.42562074469603073 -5.7229665582283684e-18
  outer loop
    vertex 138.7159861456615 5.594524903704735 0.0
    vertex 140.26570343191625 0.7356797391946234 -2.2954990774296524
    vertex 138.7159861456615 5.594524903704735 -2.2954990774296524
  endloop
endfacet
facet normal 0.8210491982816782 -0.5708574375454992 0.0
  outer loop
    vertex 137.03893727140445 -14.33503874112586 -9.7
    vertex 133.52443027375108 -18.196072220932894 0.0
    vertex 133.52443027375108 -18.196072220932894 -9.7
  endloop
endfacet
facet normal 0.64532384839901 -0.7639091115358498 0.0
  outer loop
    vertex 133.52443027375108 -18.196072220932894 0.0
    vertex 137.03893727140445 -14.33503874112586 -9.7
    vertex 137.03893727140445 -14.33503874112586 0.0
  endloop
endfacet
facet normal 0.64532384839901 -0.7639091115358498 0.0
  outer loop
    vertex 133.52443027375108 -18.196072220932894 0.0
    vertex 129.1303681996915 -21.015922830106476 -9.7
    vertex 133.52443027375108 -18.196072220932894 -9.7
  endloop
endfacet
facet normal 0.42562074469602906 -0.9049016419945306 0.0
  outer loop
    vertex 129.1303681996915 -21.015922830106476 -9.7
    vertex 133.52443027375108 -18.196072220932894 0.0
    vertex 129.1303681996915 -21.015922830106476 0.0
  endloop
endfacet
facet normal 0.42562074469602906 -0.9049016419945306 0.0
  outer loop
    vertex 129.1303681996915 -21.015922830106476 0.0
    vertex 124.15619911804198 -22.6024224096549 -9.7
    vertex 129.1303681996915 -21.015922830106476 -9.7
  endloop
endfacet
facet normal 0.17691229061355393 -0.9842266209719516 3.2939198895820722e-19
  outer loop
    vertex 124.15619911804198 -22.6024224096549 -9.7
    vertex 129.1303681996915 -21.015922830106476 0.0
    vertex 124.15619911804198 -22.6024224096549 0.0
  endloop
endfacet
facet normal -0.8210491982816779 0.5708574375454996 -1.928028693211178e-19
  outer loop
    vertex 104.19696934013734 8.499258760694113 0.0
    vertex 101.8015252627828 3.8601654612429694 -9.7
    vertex 101.8015252627828 3.8601654612429694 0.0
  endloop
endfacet
facet normal -0.9408214021494052 0.3389027725729418 4.4982737356953286e-20
  outer loop
    vertex 101.8015252627828 3.8601654612429694 -9.7
    vertex 104.19696934013734 8.499258760694113 0.0
    vertex 104.19696934013729 8.499258760694108 -2.2954990774296524
  endloop
endfacet
facet normal -0.9408214021494052 0.3389027725729418 4.4982737356953286e-20
  outer loop
    vertex 101.8015252627828 3.8601654612429694 -9.7
    vertex 104.19696934013729 8.499258760694108 -7.395499077429651
    vertex 104.19696934013734 8.499258760694113 -9.7
  endloop
endfacet
facet normal -0.8452872568411899 0.5343121310824754 -9.845199922847533e-20
  outer loop
    vertex 104.19696934013729 8.499258760694108 -7.395499077429651
    vertex 101.8015252627828 3.8601654612429694 -9.7
    vertex 104.19696934013729 8.499258760694108 -2.2954990774296524
  endloop
endfacet
facet normal -0.7395131609481468 0.6731420985085397 0.0
  outer loop
    vertex 115.0251256520123 5.539354896444281 -2.2954990774296524
    vertex 111.59210094961874 1.7678377756087238 -7.395499077429651
    vertex 111.59210094961874 1.7678377756087238 -2.2954990774296524
  endloop
endfacet
facet normal -0.7395131609481468 0.6731420985085397 0.0
  outer loop
    vertex 111.59210094961874 1.7678377756087238 -7.395499077429651
    vertex 115.0251256520123 5.539354896444281 -2.2954990774296524
    vertex 115.0251256520123 5.539354896444281 -7.395499077429651
  endloop
endfacet
facet normal -0.9842266209719512 -0.17691229061355487 0.0
  outer loop
    vertex 100.93342088633186 -6.456135802486969 0.0
    vertex 102.51992046588028 -11.430304884136488 -9.7
    vertex 102.51992046588028 -11.430304884136488 0.0
  endloop
endfacet
facet normal -0.9049016419945302 -0.42562074469603023 0.0
  outer loop
    vertex 102.51992046588028 -11.430304884136488 -9.7
    vertex 100.93342088633186 -6.456135802486969 0.0
    vertex 100.93342088633186 -6.456135802486969 -9.7
  endloop
endfacet
facet normal -0.6731420985085407 -0.7395131609481459 0.0
  outer loop
    vertex 115.0251256520123 5.539354896444281 -2.2954990774296524
    vertex 107.62999404253088 12.270775881529659 -7.395499077429651
    vertex 115.0251256520123 5.539354896444281 -7.395499077429651
  endloop
endfacet
facet normal -0.6731420985085407 -0.7395131609481459 0.0
  outer loop
    vertex 107.62999404253088 12.270775881529659 -7.395499077429651
    vertex 115.0251256520123 5.539354896444281 -2.2954990774296524
    vertex 107.62999404253088 12.270775881529659 -2.2954990774296524
  endloop
endfacet
facet normal -0.3038661345597524 0.9527147381392369 1.820498987156518e-32
  outer loop
    vertex 130.7385560505239 -2.3029816064029025 -2.2954990774296524
    vertex 140.26570343191625 0.7356797391946234 -7.395499077429651
    vertex 130.7385560505239 -2.3029816064029025 -7.395499077429651
  endloop
endfacet
facet normal -0.3038661345597524 0.9527147381392369 1.820498987156518e-32
  outer loop
    vertex 140.26570343191625 0.7356797391946234 -7.395499077429651
    vertex 130.7385560505239 -2.3029816064029025 -2.2954990774296524
    vertex 140.26570343191625 0.7356797391946234 -2.2954990774296524
  endloop
endfacet
facet normal 0.9770082330682955 -0.21320157719108762 1.8347535879604575e-17
  outer loop
    vertex 116.09017821477644 -11.990043260688966 -7.395499077429651
    vertex 113.95816244286556 -21.760125591371917 -2.2954990774296524
    vertex 113.95816244286556 -21.760125591371917 -7.395499077429651
  endloop
endfacet
facet normal 0.9770082330682955 -0.21320157719108762 1.8347535879604575e-17
  outer loop
    vertex 113.95816244286556 -21.760125591371917 -2.2954990774296524
    vertex 116.09017821477644 -11.990043260688966 -7.395499077429651
    vertex 116.09017821477644 -11.990043260688966 -2.2954990774296524
  endloop
endfacet
facet normal 0.9527147381392367 0.3038661345597532 1.3074937999719641e-17
  outer loop
    vertex 129.18883876426915 2.555863558107201 -7.395499077429651
    vertex 130.7385560505239 -2.3029816064029025 -2.2954990774296524
    vertex 130.7385560505239 -2.3029816064029025 -7.395499077429651
  endloop
endfacet
facet normal 0.9527147381392367 0.3038661345597532 1.3074937999719641e-17
  outer loop
    vertex 130.7385560505239 -2.3029816064029025 -2.2954990774296524
    vertex 129.18883876426915 2.555863558107201 -7.395499077429651
    vertex 129.18883876426915 2.555863558107201 -2.2954990774296524
  endloop
endfacet
facet normal 0.0 0.0 -1.0
  outer loop
    vertex 116.09017821477644 -11.990043260688966 -2.2954990774296524
    vertex 118.94090443151386 -22.847453635046463 -2.2954990774296524
    vertex 113.95816244286556 -21.760125591371917 -2.2954990774296524
  endloop
endfacet
facet normal 0.0 0.0 -1.0
  outer loop
    vertex 118.94090443151386 -22.847453635046463 -2.2954990774296524
    vertex 116.09017821477644 -11.990043260688966 -2.2954990774296524
    vertex 121.07292020342474 -13.077371304363519 -2.2954990774296524
  endloop
endfacet
facet normal 0.7639091115358501 0.6453238483990098 -4.891589725061433e-18
  outer loop
    vertex 135.8961355364879 9.98858697776432 -9.7
    vertex 138.7159861456615 5.594524903704735 -7.395499077429651
    vertex 138.7159861456615 5.594524903704735 -9.7
  endloop
endfacet
facet normal 0.8853715077457669 0.4648841718879956 -7.069566764756116e-18
  outer loop
    vertex 138.7159861456615 5.594524903704735 -7.395499077429651
    vertex 135.8961355364879 9.98858697776432 -9.7
    vertex 138.7159861456615 5.594524903704735 -2.2954990774296524
  endloop
endfacet
facet normal 0.8853715076169935 0.4648841721332444 -7.069566773221216e-18
  outer loop
    vertex 138.7159861456615 5.594524903704735 -2.2954990774296524
    vertex 135.8961355364879 9.98858697776432 -9.7
    vertex 138.7159861456615 5.594524903704735 0.0
  endloop
endfacet
facet normal 0.90490164199453 0.42562074469603073 -5.7229665582283684e-18
  outer loop
    vertex 138.7159861456615 5.594524903704735 0.0
    vertex 135.8961355364879 9.98858697776432 -9.7
    vertex 135.8961355364879 9.98858697776432 0.0
  endloop
endfacet
facet normal -0.33890277257294094 -0.9408214021494055 -2.812579077961993e-18
  outer loop
    vertex 113.83989785431206 -21.734318033203984 0.0
    vertex 109.2008045548609 -19.338873955849444 -9.7
    vertex 113.83989785431206 -21.734318033203984 -9.7
  endloop
endfacet
facet normal -0.5708574375454984 -0.8210491982816788 0.0
  outer loop
    vertex 109.2008045548609 -19.338873955849444 -9.7
    vertex 113.83989785431206 -21.734318033203984 0.0
    vertex 109.2008045548609 -19.338873955849444 0.0
  endloop
endfacet
facet normal 0.9408214021494048 -0.33890277257294277 0.0
  outer loop
    vertex 139.434381348759 -9.695945441674727 -9.7
    vertex 137.03893727140445 -14.33503874112586 0.0
    vertex 137.03893727140445 -14.33503874112586 -9.7
  endloop
endfacet
facet normal 0.8210491982816782 -0.5708574375454992 0.0
  outer loop
    vertex 137.03893727140445 -14.33503874112586 0.0
    vertex 139.434381348759 -9.695945441674727 -9.7
    vertex 139.434381348759 -9.695945441674727 0.0
  endloop
endfacet
facet normal -0.6453238483990089 0.7639091115358508 -2.377856066780686e-19
  outer loop
    vertex 107.71147633779071 12.360292240501144 0.0
    vertex 112.10553841185028 15.180142849674732 -9.7
    vertex 107.71147633779071 12.360292240501144 -9.7
  endloop
endfacet
facet normal -0.4256207446960306 0.9049016419945299 0.0
  outer loop
    vertex 112.10553841185028 15.180142849674732 -9.7
    vertex 107.71147633779071 12.360292240501144 0.0
    vertex 112.10553841185028 15.180142849674732 0.0
  endloop
endfacet
facet normal -0.08385244371285079 -0.9964781822415296 -2.4831870890037853e-18
  outer loop
    vertex 118.94090443151386 -22.847453635046463 0.0
    vertex 113.95816244286556 -21.760125591371917 -2.2954990774296524
    vertex 118.94090443151386 -22.847453635046463 -2.2954990774296524
  endloop
endfacet
facet normal -0.04008425092380932 -0.9991963034498661 -1.434482786584247e-18
  outer loop
    vertex 118.94090443151386 -22.847453635046463 -7.395499077429651
    vertex 113.83989785431206 -21.734318033203984 -9.7
    vertex 118.94090443151386 -22.847453635046463 -9.7
  endloop
endfacet
facet normal -0.33890277257294094 -0.9408214021494055 -2.812579077961993e-18
  outer loop
    vertex 113.83989785431206 -21.734318033203984 -9.7
    vertex 118.94090443151386 -22.847453635046463 -7.395499077429651
    vertex 113.95816244286556 -21.760125591371917 -7.395499077429651
  endloop
endfacet
facet normal -0.33890277257294094 -0.9408214021494055 -2.812579077961993e-18
  outer loop
    vertex 113.83989785431206 -21.734318033203984 -9.7
    vertex 113.95816244286556 -21.760125591371917 -7.395499077429651
    vertex 113.83989785431206 -21.734318033203984 0.0
  endloop
endfacet
facet normal -0.33890277257294094 -0.9408214021494055 -2.812579077961993e-18
  outer loop
    vertex 113.83989785431206 -21.734318033203984 0.0
    vertex 113.95816244286556 -21.760125591371917 -7.395499077429651
    vertex 113.95816244286556 -21.760125591371917 -2.2954990774296524
  endloop
endfacet
facet normal -0.33890277257294094 -0.9408214021494055 -2.812579077961993e-18
  outer loop
    vertex 113.83989785431206 -21.734318033203984 0.0
    vertex 113.95816244286556 -21.760125591371917 -2.2954990774296524
    vertex 118.94090443151386 -22.847453635046463 0.0
  endloop
endfacet
facet normal 0.08385244371285079 0.9964781822415296 0.0
  outer loop
    vertex 122.29500218002792 17.011673654614718 0.0
    vertex 127.39600875722975 15.898538052772233 -9.7
    vertex 122.29500218002792 17.011673654614718 -9.7
  endloop
endfacet
facet normal 0.338902772572942 0.9408214021494051 0.0
  outer loop
    vertex 127.39600875722975 15.898538052772233 -9.7
    vertex 122.29500218002792 17.011673654614718 0.0
    vertex 127.39600875722975 15.898538052772233 0.0
  endloop
endfacet
facet normal 0.0 0.0 1.0
  outer loop
    vertex 130.7385560505239 -2.3029816064029025 -7.395499077429651
    vertex 138.7159861456615 5.594524903704735 -7.395499077429651
    vertex 129.18883876426915 2.555863558107201 -7.395499077429651
  endloop
endfacet
facet normal 0.0 0.0 1.0
  outer loop
    vertex 138.7159861456615 5.594524903704735 -7.395499077429651
    vertex 130.7385560505239 -2.3029816064029025 -7.395499077429651
    vertex 140.26570343191625 0.7356797391946234 -7.395499077429651
  endloop
endfacet
facet normal 0.0 0.0 1.0
  outer loop
    vertex 118.94090443151386 -22.847453635046463 0.0
    vertex 116.9279533057709 -2.917889990215875 0.0
    vertex 113.83989785431206 -21.734318033203984 0.0
  endloop
endfacet
facet normal 0.0 0.0 1.0
  outer loop
    vertex 116.9279533057709 -2.917889990215875 0.0
    vertex 118.94090443151386 -22.847453635046463 0.0
    vertex 117.05368700676424 -3.872932266644175 0.0
  endloop
endfacet
facet normal 0.0 0.0 1.0
  outer loop
    vertex 117.05368700676424 -3.872932266644175 0.0
    vertex 118.94090443151386 -22.847453635046463 0.0
    vertex 117.42231956580632 -4.762889990215872 0.0
  endloop
endfacet
facet normal 0.0 0.0 1.0
  outer loop
    vertex 117.42231956580632 -4.762889990215872 0.0
    vertex 118.94090443151386 -22.847453635046463 0.0
    vertex 118.00872928319255 -5.527114012794234 0.0
  endloop
endfacet
facet normal 0.0 0.0 1.0
  outer loop
    vertex 118.00872928319255 -5.527114012794234 0.0
    vertex 118.94090443151386 -22.847453635046463 0.0
    vertex 118.7729533057709 -6.11352373018045 0.0
  endloop
endfacet
facet normal 0.0 0.0 1.0
  outer loop
    vertex 118.7729533057709 -6.11352373018045 0.0
    vertex 118.94090443151386 -22.847453635046463 0.0
    vertex 119.6629110293426 -6.482156289222534 0.0
  endloop
endfacet
facet normal 0.0 0.0 1.0
  outer loop
    vertex 119.6629110293426 -6.482156289222534 0.0
    vertex 118.94090443151386 -22.847453635046463 0.0
    vertex 124.15619911804198 -22.6024224096549 0.0
  endloop
endfacet
facet normal 0.0 0.0 1.0
  outer loop
    vertex 119.6629110293426 -6.482156289222534 0.0
    vertex 124.15619911804198 -22.6024224096549 0.0
    vertex 120.6179533057709 -6.607889990215872 0.0
  endloop
endfacet
facet normal 0.0 0.0 1.0
  outer loop
    vertex 120.6179533057709 -6.607889990215872 0.0
    vertex 124.15619911804198 -22.6024224096549 0.0
    vertex 121.57299558219921 -6.482156289222536 0.0
  endloop
endfacet
facet normal 0.0 0.0 1.0
  outer loop
    vertex 121.57299558219921 -6.482156289222536 0.0
    vertex 124.15619911804198 -22.6024224096549 0.0
    vertex 122.4629533057709 -6.113523730180453 0.0
  endloop
endfacet
facet normal 0.0 0.0 1.0
  outer loop
    vertex 122.4629533057709 -6.113523730180453 0.0
    vertex 124.15619911804198 -22.6024224096549 0.0
    vertex 123.22717732834926 -5.527114012794234 0.0
  endloop
endfacet
facet normal 0.0 0.0 1.0
  outer loop
    vertex 123.22717732834926 -5.527114012794234 0.0
    vertex 124.15619911804198 -22.6024224096549 0.0
    vertex 123.81358704573549 -4.762889990215875 0.0
  endloop
endfacet
facet normal 0.0 0.0 1.0
  outer loop
    vertex 123.81358704573549 -4.762889990215875 0.0
    vertex 124.15619911804198 -22.6024224096549 0.0
    vertex 124.18221960477756 -3.8729322666441774 0.0
  endloop
endfacet
facet normal 0.0 0.0 1.0
  outer loop
    vertex 124.18221960477756 -3.8729322666441774 0.0
    vertex 124.15619911804198 -22.6024224096549 0.0
    vertex 129.1303681996915 -21.015922830106476 0.0
  endloop
endfacet
facet normal 0.0 0.0 1.0
  outer loop
    vertex 124.18221960477756 -3.8729322666441774 0.0
    vertex 129.1303681996915 -21.015922830106476 0.0
    vertex 124.3079533057709 -2.917889990215875 0.0
  endloop
endfacet
facet normal 0.0 0.0 1.0
  outer loop
    vertex 124.3079533057709 -2.917889990215875 0.0
    vertex 129.1303681996915 -21.015922830106476 0.0
    vertex 127.39600875722975 15.898538052772233 0.0
  endloop
endfacet
facet normal 0.0 0.0 1.0
  outer loop
    vertex 127.39600875722975 15.898538052772233 0.0
    vertex 129.1303681996915 -21.015922830106476 0.0
    vertex 132.03510205668087 13.503093975417693 0.0
  endloop
endfacet
facet normal 0.0 0.0 1.0
  outer loop
    vertex 132.03510205668087 13.503093975417693 0.0
    vertex 129.1303681996915 -21.015922830106476 0.0
    vertex 133.52443027375108 -18.196072220932894 0.0
  endloop
endfacet
facet normal 0.0 0.0 1.0
  outer loop
    vertex 132.03510205668087 13.503093975417693 0.0
    vertex 133.52443027375108 -18.196072220932894 0.0
    vertex 135.8961355364879 9.98858697776432 0.0
  endloop
endfacet
facet normal 0.0 0.0 1.0
  outer loop
    vertex 135.8961355364879 9.98858697776432 0.0
    vertex 133.52443027375108 -18.196072220932894 0.0
    vertex 137.03893727140445 -14.33503874112586 0.0
  endloop
endfacet
facet normal 0.0 0.0 1.0
  outer loop
    vertex 135.8961355364879 9.98858697776432 0.0
    vertex 137.03893727140445 -14.33503874112586 0.0
    vertex 138.7159861456615 5.594524903704735 0.0
  endloop
endfacet
facet normal 0.0 0.0 1.0
  outer loop
    vertex 138.7159861456615 5.594524903704735 0.0
    vertex 137.03893727140445 -14.33503874112586 0.0
    vertex 139.434381348759 -9.695945441674727 0.0
  endloop
endfacet
facet normal 0.0 0.0 1.0
  outer loop
    vertex 138.7159861456615 5.594524903704735 0.0
    vertex 139.434381348759 -9.695945441674727 0.0
    vertex 140.30248572520992 0.6203558220552107 0.0
  endloop
endfacet
facet normal 0.0 0.0 1.0
  outer loop
    vertex 140.30248572520992 0.6203558220552107 0.0
    vertex 139.434381348759 -9.695945441674727 0.0
    vertex 140.54751695060148 -4.594938864472906 0.0
  endloop
endfacet
facet normal 0.0 0.0 1.0
  outer loop
    vertex 100.93342088633186 -6.456135802486969 0.0
    vertex 101.8015252627828 3.8601654612429694 0.0
    vertex 100.68838966094029 -1.240841115958847 0.0
  endloop
endfacet
facet normal 0.0 0.0 1.0
  outer loop
    vertex 101.8015252627828 3.8601654612429694 0.0
    vertex 100.93342088633186 -6.456135802486969 0.0
    vertex 102.51992046588028 -11.430304884136488 0.0
  endloop
endfacet
facet normal 0.0 0.0 1.0
  outer loop
    vertex 101.8015252627828 3.8601654612429694 0.0
    vertex 102.51992046588028 -11.430304884136488 0.0
    vertex 104.19696934013734 8.499258760694113 0.0
  endloop
endfacet
facet normal 0.0 0.0 1.0
  outer loop
    vertex 104.19696934013734 8.499258760694113 0.0
    vertex 102.51992046588028 -11.430304884136488 0.0
    vertex 105.33977107505389 -15.824366958196068 0.0
  endloop
endfacet
facet normal 0.0 0.0 1.0
  outer loop
    vertex 104.19696934013734 8.499258760694113 0.0
    vertex 105.33977107505389 -15.824366958196068 0.0
    vertex 107.71147633779071 12.360292240501144 0.0
  endloop
endfacet
facet normal 0.0 0.0 1.0
  outer loop
    vertex 107.71147633779071 12.360292240501144 0.0
    vertex 105.33977107505389 -15.824366958196068 0.0
    vertex 109.2008045548609 -19.338873955849444 0.0
  endloop
endfacet
facet normal 0.0 0.0 1.0
  outer loop
    vertex 107.71147633779071 12.360292240501144 0.0
    vertex 109.2008045548609 -19.338873955849444 0.0
    vertex 112.10553841185028 15.180142849674732 0.0
  endloop
endfacet
facet normal 0.0 0.0 1.0
  outer loop
    vertex 112.10553841185028 15.180142849674732 0.0
    vertex 109.2008045548609 -19.338873955849444 0.0
    vertex 113.83989785431206 -21.734318033203984 0.0
  endloop
endfacet
facet normal 0.0 0.0 1.0
  outer loop
    vertex 112.10553841185028 15.180142849674732 0.0
    vertex 113.83989785431206 -21.734318033203984 0.0
    vertex 117.0797074934998 16.766642429223154 0.0
  endloop
endfacet
facet normal 0.0 0.0 1.0
  outer loop
    vertex 117.0797074934998 16.766642429223154 0.0
    vertex 113.83989785431206 -21.734318033203984 0.0
    vertex 116.9279533057709 -2.917889990215875 0.0
  endloop
endfacet
facet normal 0.0 0.0 1.0
  outer loop
    vertex 117.0797074934998 16.766642429223154 0.0
    vertex 116.9279533057709 -2.917889990215875 0.0
    vertex 117.05368700676424 -1.9628477137875722 0.0
  endloop
endfacet
facet normal 0.0 0.0 1.0
  outer loop
    vertex 117.0797074934998 16.766642429223154 0.0
    vertex 117.05368700676424 -1.9628477137875722 0.0
    vertex 117.42231956580632 -1.0728899902158775 0.0
  endloop
endfacet
facet normal 0.0 0.0 1.0
  outer loop
    vertex 117.0797074934998 16.766642429223154 0.0
    vertex 117.42231956580632 -1.0728899902158775 0.0
    vertex 122.29500218002792 17.011673654614718 0.0
  endloop
endfacet
facet normal 0.0 0.0 1.0
  outer loop
    vertex 122.29500218002792 17.011673654614718 0.0
    vertex 117.42231956580632 -1.0728899902158775 0.0
    vertex 118.00872928319255 -0.3086659676375154 0.0
  endloop
endfacet
facet normal 0.0 0.0 1.0
  outer loop
    vertex 122.29500218002792 17.011673654614718 0.0
    vertex 118.00872928319255 -0.3086659676375154 0.0
    vertex 118.7729533057709 0.27774374974870336 0.0
  endloop
endfacet
facet normal 0.0 0.0 1.0
  outer loop
    vertex 122.29500218002792 17.011673654614718 0.0
    vertex 118.7729533057709 0.27774374974870336 0.0
    vertex 119.6629110293426 0.6463763087907844 0.0
  endloop
endfacet
facet normal 0.0 0.0 1.0
  outer loop
    vertex 122.29500218002792 17.011673654614718 0.0
    vertex 119.6629110293426 0.6463763087907844 0.0
    vertex 120.6179533057709 0.7721100097841225 0.0
  endloop
endfacet
facet normal 0.0 0.0 1.0
  outer loop
    vertex 122.29500218002792 17.011673654614718 0.0
    vertex 120.6179533057709 0.7721100097841225 0.0
    vertex 121.57299558219921 0.6463763087907844 0.0
  endloop
endfacet
facet normal 0.0 0.0 1.0
  outer loop
    vertex 122.29500218002792 17.011673654614718 0.0
    vertex 121.57299558219921 0.6463763087907844 0.0
    vertex 122.4629533057709 0.27774374974870053 0.0
  endloop
endfacet
facet normal 0.0 0.0 1.0
  outer loop
    vertex 122.29500218002792 17.011673654614718 0.0
    vertex 122.4629533057709 0.27774374974870053 0.0
    vertex 127.39600875722975 15.898538052772233 0.0
  endloop
endfacet
facet normal 0.0 0.0 1.0
  outer loop
    vertex 127.39600875722975 15.898538052772233 0.0
    vertex 122.4629533057709 0.27774374974870053 0.0
    vertex 123.22717732834926 -0.3086659676375154 0.0
  endloop
endfacet
facet normal 0.0 0.0 1.0
  outer loop
    vertex 127.39600875722975 15.898538052772233 0.0
    vertex 123.22717732834926 -0.3086659676375154 0.0
    vertex 123.81358704573549 -1.0728899902158804 0.0
  endloop
endfacet
facet normal 0.0 0.0 1.0
  outer loop
    vertex 127.39600875722975 15.898538052772233 0.0
    vertex 123.81358704573549 -1.0728899902158804 0.0
    vertex 124.18221960477756 -1.9628477137875748 0.0
  endloop
endfacet
facet normal 0.0 0.0 1.0
  outer loop
    vertex 127.39600875722975 15.898538052772233 0.0
    vertex 124.18221960477756 -1.9628477137875748 0.0
    vertex 124.3079533057709 -2.917889990215875 0.0
  endloop
endfacet
facet normal 0.6731420985085405 0.7395131609481461 2.0580422818954883e-31
  outer loop
    vertex 104.19696934013729 8.499258760694108 -2.2954990774296524
    vertex 111.59210094961874 1.7678377756087238 -7.395499077429651
    vertex 104.19696934013729 8.499258760694108 -7.395499077429651
  endloop
endfacet
facet normal 0.6731420985085405 0.7395131609481461 2.0580422818954883e-31
  outer loop
    vertex 111.59210094961874 1.7678377756087238 -7.395499077429651
    vertex 104.19696934013729 8.499258760694108 -2.2954990774296524
    vertex 111.59210094961874 1.7678377756087238 -2.2954990774296524
  endloop
endfacet
facet normal 0.3038661345597541 -0.9527147381392362 0.0
  outer loop
    vertex 138.7159861456615 5.594524903704735 -2.2954990774296524
    vertex 129.18883876426915 2.555863558107201 -7.395499077429651
    vertex 138.7159861456615 5.594524903704735 -7.395499077429651
  endloop
endfacet
facet normal 0.3038661345597541 -0.9527147381392362 0.0
  outer loop
    vertex 129.18883876426915 2.555863558107201 -7.395499077429651
    vertex 138.7159861456615 5.594524903704735 -2.2954990774296524
    vertex 129.18883876426915 2.555863558107201 -2.2954990774296524
  endloop
endfacet
facet normal 0.0 0.0 1.0
  outer loop
    vertex 118.94090443151386 -22.847453635046463 -7.395499077429651
    vertex 116.09017821477644 -11.990043260688966 -7.395499077429651
    vertex 113.95816244286556 -21.760125591371917 -7.395499077429651
  endloop
endfacet
facet normal 0.0 0.0 1.0
  outer loop
    vertex 116.09017821477644 -11.990043260688966 -7.395499077429651
    vertex 118.94090443151386 -22.847453635046463 -7.395499077429651
    vertex 121.07292020342474 -13.077371304363519 -7.395499077429651
  endloop
endfacet
facet normal -0.21320157719108884 -0.9770082330682953 1.0509827042005917e-17
  outer loop
    vertex 121.07292020342474 -13.077371304363519 -2.2954990774296524
    vertex 116.09017821477644 -11.990043260688966 -7.395499077429651
    vertex 121.07292020342474 -13.077371304363519 -7.395499077429651
  endloop
endfacet
facet normal -0.21320157719108884 -0.9770082330682953 1.0509827042005917e-17
  outer loop
    vertex 116.09017821477644 -11.990043260688966 -7.395499077429651
    vertex 121.07292020342474 -13.077371304363519 -2.2954990774296524
    vertex 116.09017821477644 -11.990043260688966 -2.2954990774296524
  endloop
endfacet
facet normal -0.9770082330682955 0.21320157719108773 1.834753587960458e-17
  outer loop
    vertex 121.07292020342474 -13.077371304363519 -2.2954990774296524
    vertex 118.94090443151386 -22.847453635046463 -7.395499077429651
    vertex 118.94090443151386 -22.847453635046463 -2.2954990774296524
  endloop
endfacet
facet normal -0.9770082330682955 0.21320157719108773 1.834753587960458e-17
  outer loop
    vertex 118.94090443151386 -22.847453635046463 -7.395499077429651
    vertex 121.07292020342474 -13.077371304363519 -2.2954990774296524
    vertex 121.07292020342474 -13.077371304363519 -7.395499077429651
  endloop
endfacet
facet normal 0.0 0.0 -1.0
  outer loop
    vertex 138.7159861456615 5.594524903704735 -2.2954990774296524
    vertex 130.7385560505239 -2.3029816064029025 -2.2954990774296524
    vertex 129.18883876426915 2.555863558107201 -2.2954990774296524
  endloop
endfacet
facet normal 0.0 0.0 -1.0
  outer loop
    vertex 130.7385560505239 -2.3029816064029025 -2.2954990774296524
    vertex 138.7159861456615 5.594524903704735 -2.2954990774296524
    vertex 140.26570343191625 0.7356797391946234 -2.2954990774296524
  endloop
endfacet
facet normal 0.9964781822415297 -0.08385244371285 0.0
  outer loop
    vertex 140.54751695060148 -4.594938864472906 -9.7
    vertex 139.434381348759 -9.695945441674727 0.0
    vertex 139.434381348759 -9.695945441674727 -9.7
  endloop
endfacet
facet normal 0.9408214021494048 -0.33890277257294277 0.0
  outer loop
    vertex 139.434381348759 -9.695945441674727 0.0
    vertex 140.54751695060148 -4.594938864472906 -9.7
    vertex 140.54751695060148 -4.594938864472906 0.0
  endloop
endfacet
facet normal 0.0 0.0 1.0
  outer loop
    vertex 111.59210094961874 1.7678377756087238 -7.395499077429651
    vertex 107.62999404253088 12.270775881529659 -7.395499077429651
    vertex 104.19696934013729 8.499258760694108 -7.395499077429651
  endloop
endfacet
facet normal 0.0 0.0 1.0
  outer loop
    vertex 107.62999404253088 12.270775881529659 -7.395499077429651
    vertex 111.59210094961874 1.7678377756087238 -7.395499077429651
    vertex 115.0251256520123 5.539354896444281 -7.395499077429651
  endloop
endfacet
facet normal 0.0 0.0 -1.0
  outer loop
    vertex 107.62999404253088 12.270775881529659 -2.2954990774296524
    vertex 111.59210094961874 1.7678377756087238 -2.2954990774296524
    vertex 104.19696934013729 8.499258760694108 -2.2954990774296524
  endloop
endfacet
facet normal 0.0 0.0 -1.0
  outer loop
    vertex 111.59210094961874 1.7678377756087238 -2.2954990774296524
    vertex 107.62999404253088 12.270775881529659 -2.2954990774296524
    vertex 115.0251256520123 5.539354896444281 -2.2954990774296524
  endloop
endfacet
facet normal -0.5000000000000021 0.8660254037844373 2.3186549010031136e-20
  outer loop
    vertex 122.4629533057709 -6.113523730180453 0.0
    vertex 123.22717732834926 -5.527114012794234 -9.700000000000003
    vertex 122.4629533057709 -6.113523730180453 -9.700000000000003
  endloop
endfacet
facet normal -0.7071067811865465 0.7071067811865486 4.698452017593519e-19
  outer loop
    vertex 123.22717732834926 -5.527114012794234 -9.700000000000003
    vertex 122.4629533057709 -6.113523730180453 0.0
    vertex 123.22717732834926 -5.527114012794234 0.0
  endloop
endfacet
facet normal 0.500000000000001 -0.8660254037844382 7.139614574104704e-19
  outer loop
    vertex 118.7729533057709 0.27774374974870336 0.0
    vertex 118.00872928319255 -0.3086659676375154 -9.700000000000003
    vertex 118.7729533057709 0.27774374974870336 -9.700000000000003
  endloop
endfacet
facet normal 0.7071067811865472 -0.707106781186548 7.458800225782794e-19
  outer loop
    vertex 118.00872928319255 -0.3086659676375154 -9.700000000000003
    vertex 118.7729533057709 0.27774374974870336 0.0
    vertex 118.00872928319255 -0.3086659676375154 0.0
  endloop
endfacet
facet normal 1.4525109129904451e-15 1.0 0.0
  outer loop
    vertex 120.6179533057709 -6.607889990215872 0.0
    vertex 121.57299558219921 -6.482156289222536 -9.7
    vertex 120.6179533057709 -6.607889990215872 -9.7
  endloop
endfacet
facet normal -0.25881904510252013 0.9659258262890684 -8.871423533268228e-19
  outer loop
    vertex 121.57299558219921 -6.482156289222536 -9.7
    vertex 120.6179533057709 -6.607889990215872 0.0
    vertex 121.57299558219921 -6.482156289222536 0.0
  endloop
endfacet
facet normal 0.7071067811865462 0.7071067811865488 0.0
  outer loop
    vertex 118.00872928319255 -5.527114012794234 0.0
    vertex 118.7729533057709 -6.11352373018045 -9.7
    vertex 118.00872928319255 -5.527114012794234 -9.7
  endloop
endfacet
facet normal 0.5000000000000011 0.8660254037844379 6.907749084003952e-19
  outer loop
    vertex 118.7729533057709 -6.11352373018045 -9.7
    vertex 118.00872928319255 -5.527114012794234 0.0
    vertex 118.7729533057709 -6.11352373018045 0.0
  endloop
endfacet
facet normal 0.7071067811865472 -0.707106781186548 7.458800225782794e-19
  outer loop
    vertex 118.00872928319255 -0.3086659676375154 -9.700000000000003
    vertex 117.42231956580632 -1.0728899902158775 0.0
    vertex 117.42231956580632 -1.0728899902158775 -9.7
  endloop
endfacet
facet normal 0.8660254037844379 -0.5000000000000013 -1.6444887975857412e-19
  outer loop
    vertex 117.42231956580632 -1.0728899902158775 0.0
    vertex 118.00872928319255 -0.3086659676375154 -9.700000000000003
    vertex 118.00872928319255 -0.3086659676375154 0.0
  endloop
endfacet
facet normal 0.5000000000000011 0.8660254037844379 6.907749084003952e-19
  outer loop
    vertex 118.7729533057709 -6.11352373018045 0.0
    vertex 119.6629110293426 -6.482156289222534 -9.7
    vertex 118.7729533057709 -6.11352373018045 -9.7
  endloop
endfacet
facet normal 0.25881904510252146 0.9659258262890681 6.907749084003954e-19
  outer loop
    vertex 119.6629110293426 -6.482156289222534 -9.7
    vertex 118.7729533057709 -6.11352373018045 0.0
    vertex 119.6629110293426 -6.482156289222534 0.0
  endloop
endfacet
facet normal 0.0 -1.0 0.0
  outer loop
    vertex 120.6179533057709 0.7721100097841225 0.0
    vertex 119.6629110293426 0.6463763087907844 -9.7
    vertex 120.6179533057709 0.7721100097841225 -9.7
  endloop
endfacet
facet normal 0.2588190451025203 -0.9659258262890684 -1.9636744492638272e-19
  outer loop
    vertex 119.6629110293426 0.6463763087907844 -9.7
    vertex 120.6179533057709 0.7721100097841225 0.0
    vertex 119.6629110293426 0.6463763087907844 0.0
  endloop
endfacet
facet normal -1.0 -1.9604441770423192e-16 9.862896951198176e-20
  outer loop
    vertex 124.3079533057709 -2.917889990215875 0.0
    vertex 124.18221960477756 -3.8729322666441774 -9.700000000000003
    vertex 124.18221960477756 -3.8729322666441774 0.0
  endloop
endfacet
facet normal -0.9659258262890685 0.25881904510251974 1.963674449266695e-19
  outer loop
    vertex 124.18221960477756 -3.8729322666441774 -9.700000000000003
    vertex 124.3079533057709 -2.917889990215875 0.0
    vertex 124.3079533057709 -2.917889990215875 -9.700000000000003
  endloop
endfacet
facet normal -0.25881904510252013 0.9659258262890684 -8.871423533268228e-19
  outer loop
    vertex 121.57299558219921 -6.482156289222536 -9.7
    vertex 122.4629533057709 -6.113523730180453 0.0
    vertex 122.4629533057709 -6.113523730180453 -9.700000000000003
  endloop
endfacet
facet normal -0.5000000000000021 0.8660254037844373 2.3186549010031136e-20
  outer loop
    vertex 122.4629533057709 -6.113523730180453 0.0
    vertex 121.57299558219921 -6.482156289222536 -9.7
    vertex 121.57299558219921 -6.482156289222536 0.0
  endloop
endfacet
endsolid AnnenometerWire
