solid AnnenometerWire
facet normal 0.25881904510251746 0.9659258262890692 -4.749418956728718e-33
  outer loop
    vertex 7.171360211581204 7.153259132235488 -3.1999999999999997
    vertex 8.061317935152898 6.7846265731934094 -51.699999999999974
    vertex 7.171360211581204 7.153259132235488 -51.699999999999974
  endloop
endfacet
facet normal 0.4999999999999978 0.8660254037844402 -4.749418956728721e-33
  outer loop
    vertex 8.061317935152898 6.7846265731934094 -51.699999999999974
    vertex 7.171360211581204 7.153259132235488 -3.1999999999999997
    vertex 8.061317935152898 6.7846265731934094 -3.1999999999999997
  endloop
endfacet
facet normal 0.4999999999999978 0.8660254037844402 -4.749418956728721e-33
  outer loop
    vertex 8.061317935152898 6.7846265731934094 -3.1999999999999997
    vertex 8.825541957731266 6.198216855807188 -51.699999999999974
    vertex 8.061317935152898 6.7846265731934094 -51.699999999999974
  endloop
endfacet
facet normal 0.7071067811865487 0.7071067811865465 0.0
  outer loop
    vertex 8.825541957731266 6.198216855807188 -51.699999999999974
    vertex 8.061317935152898 6.7846265731934094 -3.1999999999999997
    vertex 8.825541957731266 6.198216855807188 -3.1999999999999997
  endloop
endfacet
facet normal 0.7071067811865487 0.7071067811865465 0.0
  outer loop
    vertex 8.825541957731266 6.198216855807188 -51.699999999999974
    vertex 9.41195167511748 5.433992833228826 -3.1999999999999997
    vertex 9.41195167511748 5.433992833228826 -51.699999999999974
  endloop
endfacet
facet normal 0.8660254037844405 0.499999999999997 0.0
  outer loop
    vertex 9.41195167511748 5.433992833228826 -3.1999999999999997
    vertex 8.825541957731266 6.198216855807188 -51.699999999999974
    vertex 8.825541957731266 6.198216855807188 -3.1999999999999997
  endloop
endfacet
facet normal -0.25881904510251746 0.9659258262890692 5.096754342376907e-33
  outer loop
    vertex 5.2612756587245935 7.153259132235488 -3.1999999999999997
    vertex 6.216317935152899 7.2789928332288225 -51.699999999999974
    vertex 5.2612756587245935 7.153259132235488 -51.699999999999974
  endloop
endfacet
facet normal 0.0 1.0 5.096754342376905e-33
  outer loop
    vertex 6.216317935152899 7.2789928332288225 -51.699999999999974
    vertex 5.2612756587245935 7.153259132235488 -3.1999999999999997
    vertex 6.216317935152899 7.2789928332288225 -3.1999999999999997
  endloop
endfacet
facet normal 0.0 1.0 5.096754342376905e-33
  outer loop
    vertex 6.216317935152899 7.2789928332288225 -3.1999999999999997
    vertex 7.171360211581204 7.153259132235488 -51.699999999999974
    vertex 6.216317935152899 7.2789928332288225 -51.699999999999974
  endloop
endfacet
facet normal 0.25881904510251746 0.9659258262890692 -4.749418956728718e-33
  outer loop
    vertex 7.171360211581204 7.153259132235488 -51.699999999999974
    vertex 6.216317935152899 7.2789928332288225 -3.1999999999999997
    vertex 7.171360211581204 7.153259132235488 -3.1999999999999997
  endloop
endfacet
facet normal 0.8660254037844405 0.499999999999997 0.0
  outer loop
    vertex 9.41195167511748 5.433992833228826 -51.699999999999974
    vertex 9.78058423415956 4.544035109657129 -3.1999999999999997
    vertex 9.78058423415956 4.544035109657129 -51.699999999999974
  endloop
endfacet
facet normal 0.9659258262890685 0.25881904510252 0.0
  outer loop
    vertex 9.78058423415956 4.544035109657129 -3.1999999999999997
    vertex 9.41195167511748 5.433992833228826 -51.699999999999974
    vertex 9.41195167511748 5.433992833228826 -3.1999999999999997
  endloop
endfacet
facet normal 0.9659258262890685 0.25881904510252 0.0
  outer loop
    vertex 9.78058423415956 4.544035109657129 -51.699999999999974
    vertex 9.906317935152899 3.588992833228829 -3.1999999999999997
    vertex 9.906317935152899 3.588992833228829 -51.699999999999974
  endloop
endfacet
facet normal 1.0 2.85155516660701e-16 3.355002193816615e-34
  outer loop
    vertex 9.906317935152899 3.588992833228829 -3.1999999999999997
    vertex 9.78058423415956 4.544035109657129 -51.699999999999974
    vertex 9.78058423415956 4.544035109657129 -3.1999999999999997
  endloop
endfacet
facet normal 1.0 2.85155516660701e-16 3.355002193816615e-34
  outer loop
    vertex 9.906317935152899 3.588992833228829 -51.699999999999974
    vertex 9.78058423415956 2.633950556800525 -3.1999999999999997
    vertex 9.78058423415956 2.633950556800525 -51.699999999999974
  endloop
endfacet
facet normal 0.9659258262890673 -0.258819045102525 3.3550021938166173e-34
  outer loop
    vertex 9.78058423415956 2.633950556800525 -3.1999999999999997
    vertex 9.906317935152899 3.588992833228829 -51.699999999999974
    vertex 9.906317935152899 3.588992833228829 -3.1999999999999997
  endloop
endfacet
facet normal 0.9659258262890673 -0.258819045102525 3.3550021938166173e-34
  outer loop
    vertex 9.78058423415956 2.633950556800525 -51.699999999999974
    vertex 9.411951675117468 1.7439928332288275 -3.1999999999999997
    vertex 9.411951675117468 1.7439928332288275 -51.699999999999974
  endloop
endfacet
facet normal 0.8660254037844375 -0.500000000000002 0.0
  outer loop
    vertex 9.411951675117468 1.7439928332288275 -3.1999999999999997
    vertex 9.78058423415956 2.633950556800525 -51.699999999999974
    vertex 9.78058423415956 2.633950556800525 -3.1999999999999997
  endloop
endfacet
facet normal 0.8660254037844375 -0.500000000000002 0.0
  outer loop
    vertex 9.411951675117468 1.7439928332288275 -51.699999999999974
    vertex 8.825541957731255 0.9797688106504668 -3.1999999999999997
    vertex 8.825541957731255 0.9797688106504668 -51.699999999999974
  endloop
endfacet
facet normal 0.7071067811865498 -0.7071067811865452 0.0
  outer loop
    vertex 8.825541957731255 0.9797688106504668 -3.1999999999999997
    vertex 9.411951675117468 1.7439928332288275 -51.699999999999974
    vertex 9.411951675117468 1.7439928332288275 -3.1999999999999997
  endloop
endfacet
facet normal 0.7071067811865498 -0.7071067811865452 0.0
  outer loop
    vertex 8.825541957731255 0.9797688106504668 -3.1999999999999997
    vertex 8.061317935152898 0.3933590932642495 -51.699999999999974
    vertex 8.825541957731255 0.9797688106504668 -51.699999999999974
  endloop
endfacet
facet normal 0.5000000000000014 -0.866025403784438 0.0
  outer loop
    vertex 8.061317935152898 0.3933590932642495 -51.699999999999974
    vertex 8.825541957731255 0.9797688106504668 -3.1999999999999997
    vertex 8.061317935152898 0.3933590932642495 -3.1999999999999997
  endloop
endfacet
facet normal 0.5000000000000014 -0.866025403784438 0.0
  outer loop
    vertex 8.061317935152898 0.3933590932642495 -3.1999999999999997
    vertex 7.171360211581204 0.024726534222166283 -51.699999999999974
    vertex 8.061317935152898 0.3933590932642495 -51.699999999999974
  endloop
endfacet
facet normal 0.2588190451025208 -0.9659258262890684 0.0
  outer loop
    vertex 7.171360211581204 0.024726534222166283 -51.699999999999974
    vertex 8.061317935152898 0.3933590932642495 -3.1999999999999997
    vertex 7.171360211581204 0.024726534222166283 -3.1999999999999997
  endloop
endfacet
facet normal 0.2588190451025208 -0.9659258262890684 0.0
  outer loop
    vertex 7.171360211581204 0.024726534222166283 -3.1999999999999997
    vertex 6.216317935152899 -0.10100716677117101 -51.699999999999974
    vertex 7.171360211581204 0.024726534222166283 -51.699999999999974
  endloop
endfacet
facet normal -3.6535550572152305e-16 -1.0 0.0
  outer loop
    vertex 6.216317935152899 -0.10100716677117101 -51.699999999999974
    vertex 7.171360211581204 0.024726534222166283 -3.1999999999999997
    vertex 6.216317935152899 -0.10100716677117101 -3.1999999999999997
  endloop
endfacet
facet normal -3.6535550572152305e-16 -1.0 0.0
  outer loop
    vertex 6.216317935152899 -0.10100716677117101 -3.1999999999999997
    vertex 5.2612756587245935 0.024726534222166988 -51.699999999999974
    vertex 6.216317935152899 -0.10100716677117101 -51.699999999999974
  endloop
endfacet
facet normal -0.25881904510252146 -0.9659258262890681 0.0
  outer loop
    vertex 5.2612756587245935 0.024726534222166988 -51.699999999999974
    vertex 6.216317935152899 -0.10100716677117101 -3.1999999999999997
    vertex 5.2612756587245935 0.024726534222166988 -3.1999999999999997
  endloop
endfacet
facet normal -0.25881904510252146 -0.9659258262890681 0.0
  outer loop
    vertex 5.2612756587245935 0.024726534222166988 -3.1999999999999997
    vertex 4.371317935152899 0.3933590932642509 -51.699999999999974
    vertex 5.2612756587245935 0.024726534222166988 -51.699999999999974
  endloop
endfacet
facet normal -0.5000000000000018 -0.8660254037844376 0.0
  outer loop
    vertex 4.371317935152899 0.3933590932642509 -51.699999999999974
    vertex 5.2612756587245935 0.024726534222166988 -3.1999999999999997
    vertex 4.371317935152899 0.3933590932642509 -3.1999999999999997
  endloop
endfacet
facet normal -0.5000000000000018 -0.8660254037844376 0.0
  outer loop
    vertex 4.371317935152899 0.3933590932642509 -3.1999999999999997
    vertex 3.6070939125745425 0.9797688106504683 -51.699999999999974
    vertex 4.371317935152899 0.3933590932642509 -51.699999999999974
  endloop
endfacet
facet normal -0.7071067811865466 -0.7071067811865486 0.0
  outer loop
    vertex 3.6070939125745425 0.9797688106504683 -51.699999999999974
    vertex 4.371317935152899 0.3933590932642509 -3.1999999999999997
    vertex 3.6070939125745425 0.9797688106504683 -3.1999999999999997
  endloop
endfacet
facet normal -0.866025403784438 -0.5000000000000011 0.0
  outer loop
    vertex 3.0206841951883177 1.743992833228829 -3.1999999999999997
    vertex 3.6070939125745425 0.9797688106504683 -51.699999999999974
    vertex 3.6070939125745425 0.9797688106504683 -3.1999999999999997
  endloop
endfacet
facet normal -0.7071067811865466 -0.7071067811865486 0.0
  outer loop
    vertex 3.6070939125745425 0.9797688106504683 -51.699999999999974
    vertex 3.0206841951883177 1.743992833228829 -3.1999999999999997
    vertex 3.0206841951883177 1.743992833228829 -51.699999999999974
  endloop
endfacet
facet normal -0.9659258262890685 -0.2588190451025197 0.0
  outer loop
    vertex 2.6520516361462367 2.633950556800528 -3.1999999999999997
    vertex 3.0206841951883177 1.743992833228829 -51.699999999999974
    vertex 3.0206841951883177 1.743992833228829 -3.1999999999999997
  endloop
endfacet
facet normal -0.866025403784438 -0.5000000000000011 0.0
  outer loop
    vertex 3.0206841951883177 1.743992833228829 -51.699999999999974
    vertex 2.6520516361462367 2.633950556800528 -3.1999999999999997
    vertex 2.6520516361462367 2.633950556800528 -51.699999999999974
  endloop
endfacet
facet normal -1.0 -9.802220885211596e-17 0.0
  outer loop
    vertex 2.526317935152899 3.588992833228829 -3.1999999999999997
    vertex 2.6520516361462367 2.633950556800528 -51.699999999999974
    vertex 2.6520516361462367 2.633950556800528 -3.1999999999999997
  endloop
endfacet
facet normal -0.9659258262890685 -0.2588190451025197 0.0
  outer loop
    vertex 2.6520516361462367 2.633950556800528 -51.699999999999974
    vertex 2.526317935152899 3.588992833228829 -3.1999999999999997
    vertex 2.526317935152899 3.588992833228829 -51.699999999999974
  endloop
endfacet
facet normal -0.9659258262890685 0.25881904510251985 0.0
  outer loop
    vertex 2.6520516361462367 4.544035109657131 -3.1999999999999997
    vertex 2.526317935152899 3.588992833228829 -51.699999999999974
    vertex 2.526317935152899 3.588992833228829 -3.1999999999999997
  endloop
endfacet
facet normal -1.0 -9.802220885211596e-17 0.0
  outer loop
    vertex 2.526317935152899 3.588992833228829 -51.699999999999974
    vertex 2.6520516361462367 4.544035109657131 -3.1999999999999997
    vertex 2.6520516361462367 4.544035109657131 -51.699999999999974
  endloop
endfacet
facet normal -0.8660254037844378 0.5000000000000018 0.0
  outer loop
    vertex 3.0206841951883177 5.433992833228829 -3.1999999999999997
    vertex 2.6520516361462367 4.544035109657131 -51.699999999999974
    vertex 2.6520516361462367 4.544035109657131 -3.1999999999999997
  endloop
endfacet
facet normal -0.9659258262890685 0.25881904510251985 0.0
  outer loop
    vertex 2.6520516361462367 4.544035109657131 -51.699999999999974
    vertex 3.0206841951883177 5.433992833228829 -3.1999999999999997
    vertex 3.0206841951883177 5.433992833228829 -51.699999999999974
  endloop
endfacet
facet normal -0.7071067811865475 0.7071067811865477 0.0
  outer loop
    vertex 3.6070939125745425 6.198216855807188 -3.1999999999999997
    vertex 3.0206841951883177 5.433992833228829 -51.699999999999974
    vertex 3.0206841951883177 5.433992833228829 -3.1999999999999997
  endloop
endfacet
facet normal -0.8660254037844378 0.5000000000000018 0.0
  outer loop
    vertex 3.0206841951883177 5.433992833228829 -51.699999999999974
    vertex 3.6070939125745425 6.198216855807188 -3.1999999999999997
    vertex 3.6070939125745425 6.198216855807188 -51.699999999999974
  endloop
endfacet
facet normal -0.7071067811865475 0.7071067811865477 0.0
  outer loop
    vertex 3.6070939125745425 6.198216855807188 -3.1999999999999997
    vertex 4.371317935152899 6.7846265731934094 -51.699999999999974
    vertex 3.6070939125745425 6.198216855807188 -51.699999999999974
  endloop
endfacet
facet normal -0.5000000000000008 0.8660254037844383 0.0
  outer loop
    vertex 4.371317935152899 6.7846265731934094 -51.699999999999974
    vertex 3.6070939125745425 6.198216855807188 -3.1999999999999997
    vertex 4.371317935152899 6.7846265731934094 -3.1999999999999997
  endloop
endfacet
facet normal -0.5000000000000008 0.8660254037844383 0.0
  outer loop
    vertex 4.371317935152899 6.7846265731934094 -3.1999999999999997
    vertex 5.2612756587245935 7.153259132235488 -51.699999999999974
    vertex 4.371317935152899 6.7846265731934094 -51.699999999999974
  endloop
endfacet
facet normal -0.25881904510251746 0.9659258262890692 5.096754342376907e-33
  outer loop
    vertex 5.2612756587245935 7.153259132235488 -51.699999999999974
    vertex 4.371317935152899 6.7846265731934094 -3.1999999999999997
    vertex 5.2612756587245935 7.153259132235488 -3.1999999999999997
  endloop
endfacet
facet normal 0.0 0.0 -1.0
  outer loop
    vertex 2.6520516361462367 4.544035109657131 -51.699999999999974
    vertex 2.6520516361462367 2.633950556800528 -51.699999999999974
    vertex 2.526317935152899 3.588992833228829 -51.699999999999974
  endloop
endfacet
facet normal 0.0 0.0 -1.0
  outer loop
    vertex 2.6520516361462367 2.633950556800528 -51.699999999999974
    vertex 2.6520516361462367 4.544035109657131 -51.699999999999974
    vertex 3.0206841951883177 5.433992833228829 -51.699999999999974
  endloop
endfacet
facet normal 0.0 0.0 -1.0
  outer loop
    vertex 2.6520516361462367 2.633950556800528 -51.699999999999974
    vertex 3.0206841951883177 5.433992833228829 -51.699999999999974
    vertex 3.0206841951883177 1.743992833228829 -51.699999999999974
  endloop
endfacet
facet normal 0.0 0.0 -1.0
  outer loop
    vertex 3.0206841951883177 1.743992833228829 -51.699999999999974
    vertex 3.0206841951883177 5.433992833228829 -51.699999999999974
    vertex 3.6070939125745425 6.198216855807188 -51.699999999999974
  endloop
endfacet
facet normal 0.0 0.0 -1.0
  outer loop
    vertex 3.0206841951883177 1.743992833228829 -51.699999999999974
    vertex 3.6070939125745425 6.198216855807188 -51.699999999999974
    vertex 3.6070939125745425 0.9797688106504683 -51.699999999999974
  endloop
endfacet
facet normal 0.0 0.0 -1.0
  outer loop
    vertex 3.6070939125745425 0.9797688106504683 -51.699999999999974
    vertex 3.6070939125745425 6.198216855807188 -51.699999999999974
    vertex 4.371317935152899 6.7846265731934094 -51.699999999999974
  endloop
endfacet
facet normal 0.0 0.0 -1.0
  outer loop
    vertex 3.6070939125745425 0.9797688106504683 -51.699999999999974
    vertex 4.371317935152899 6.7846265731934094 -51.699999999999974
    vertex 4.371317935152899 0.3933590932642509 -51.699999999999974
  endloop
endfacet
facet normal 0.0 0.0 -1.0
  outer loop
    vertex 4.371317935152899 0.3933590932642509 -51.699999999999974
    vertex 4.371317935152899 6.7846265731934094 -51.699999999999974
    vertex 5.2612756587245935 7.153259132235488 -51.699999999999974
  endloop
endfacet
facet normal 0.0 0.0 -1.0
  outer loop
    vertex 4.371317935152899 0.3933590932642509 -51.699999999999974
    vertex 5.2612756587245935 7.153259132235488 -51.699999999999974
    vertex 5.2612756587245935 0.024726534222166988 -51.699999999999974
  endloop
endfacet
facet normal 0.0 0.0 -1.0
  outer loop
    vertex 5.2612756587245935 0.024726534222166988 -51.699999999999974
    vertex 5.2612756587245935 7.153259132235488 -51.699999999999974
    vertex 6.216317935152899 7.2789928332288225 -51.699999999999974
  endloop
endfacet
facet normal 0.0 0.0 -1.0
  outer loop
    vertex 5.2612756587245935 0.024726534222166988 -51.699999999999974
    vertex 6.216317935152899 7.2789928332288225 -51.699999999999974
    vertex 6.216317935152899 -0.10100716677117101 -51.699999999999974
  endloop
endfacet
facet normal 0.0 0.0 -1.0
  outer loop
    vertex 6.216317935152899 -0.10100716677117101 -51.699999999999974
    vertex 6.216317935152899 7.2789928332288225 -51.699999999999974
    vertex 7.171360211581204 7.153259132235488 -51.699999999999974
  endloop
endfacet
facet normal 0.0 0.0 -1.0
  outer loop
    vertex 6.216317935152899 -0.10100716677117101 -51.699999999999974
    vertex 7.171360211581204 7.153259132235488 -51.699999999999974
    vertex 7.171360211581204 0.024726534222166283 -51.699999999999974
  endloop
endfacet
facet normal 0.0 0.0 -1.0
  outer loop
    vertex 7.171360211581204 0.024726534222166283 -51.699999999999974
    vertex 7.171360211581204 7.153259132235488 -51.699999999999974
    vertex 8.061317935152898 6.7846265731934094 -51.699999999999974
  endloop
endfacet
facet normal 0.0 0.0 -1.0
  outer loop
    vertex 7.171360211581204 0.024726534222166283 -51.699999999999974
    vertex 8.061317935152898 6.7846265731934094 -51.699999999999974
    vertex 8.061317935152898 0.3933590932642495 -51.699999999999974
  endloop
endfacet
facet normal 0.0 0.0 -1.0
  outer loop
    vertex 8.061317935152898 0.3933590932642495 -51.699999999999974
    vertex 8.061317935152898 6.7846265731934094 -51.699999999999974
    vertex 8.825541957731266 6.198216855807188 -51.699999999999974
  endloop
endfacet
facet normal 0.0 0.0 -1.0
  outer loop
    vertex 8.061317935152898 0.3933590932642495 -51.699999999999974
    vertex 8.825541957731266 6.198216855807188 -51.699999999999974
    vertex 8.825541957731255 0.9797688106504668 -51.699999999999974
  endloop
endfacet
facet normal 0.0 0.0 -1.0
  outer loop
    vertex 8.825541957731255 0.9797688106504668 -51.699999999999974
    vertex 8.825541957731266 6.198216855807188 -51.699999999999974
    vertex 9.411951675117468 1.7439928332288275 -51.699999999999974
  endloop
endfacet
facet normal 0.0 0.0 -1.0
  outer loop
    vertex 9.411951675117468 1.7439928332288275 -51.699999999999974
    vertex 8.825541957731266 6.198216855807188 -51.699999999999974
    vertex 9.41195167511748 5.433992833228826 -51.699999999999974
  endloop
endfacet
facet normal 0.0 0.0 -1.0
  outer loop
    vertex 9.411951675117468 1.7439928332288275 -51.699999999999974
    vertex 9.41195167511748 5.433992833228826 -51.699999999999974
    vertex 9.78058423415956 2.633950556800525 -51.699999999999974
  endloop
endfacet
facet normal 0.0 0.0 -1.0
  outer loop
    vertex 9.78058423415956 2.633950556800525 -51.699999999999974
    vertex 9.41195167511748 5.433992833228826 -51.699999999999974
    vertex 9.78058423415956 4.544035109657129 -51.699999999999974
  endloop
endfacet
facet normal 0.0 0.0 -1.0
  outer loop
    vertex 9.78058423415956 2.633950556800525 -51.699999999999974
    vertex 9.78058423415956 4.544035109657129 -51.699999999999974
    vertex 9.906317935152899 3.588992833228829 -51.699999999999974
  endloop
endfacet
facet normal -6.695173400734359e-32 2.3504332151514192e-32 -1.0
  outer loop
    vertex 1.0079084105331344 4.984581959201266 -3.1999999999999997
    vertex 1.0079084105331328 2.1934037072563943 -3.1999999999999997
    vertex 0.8241756164930513 3.5889928332288275 -3.1999999999999997
  endloop
endfacet
facet normal -6.695173400734359e-32 2.3504332151514192e-32 -1.0
  outer loop
    vertex 1.0079084105331328 2.1934037072563943 -3.1999999999999997
    vertex 1.0079084105331344 4.984581959201266 -3.1999999999999997
    vertex 1.546585706372345 0.8929216738988989 -3.1999999999999997
  endloop
endfacet
facet normal -6.695173400734359e-32 2.3504332151514192e-32 -1.0
  outer loop
    vertex 1.546585706372345 0.8929216738988989 -3.1999999999999997
    vertex 1.0079084105331344 4.984581959201266 -3.1999999999999997
    vertex 1.5465857063723478 6.285063992558762 -3.1999999999999997
  endloop
endfacet
facet normal -6.695173400734359e-32 2.3504332151514192e-32 -1.0
  outer loop
    vertex 1.546585706372345 0.8929216738988989 -3.1999999999999997
    vertex 1.5465857063723478 6.285063992558762 -3.1999999999999997
    vertex 2.403497536505574 -0.22382756541850565 -3.1999999999999997
  endloop
endfacet
facet normal -6.695173400734359e-32 2.3504332151514192e-32 -1.0
  outer loop
    vertex 2.403497536505574 -0.22382756541850565 -3.1999999999999997
    vertex 1.5465857063723478 6.285063992558762 -3.1999999999999997
    vertex 2.403497536505574 7.401813231876161 -3.1999999999999997
  endloop
endfacet
facet normal -6.695173400734359e-32 2.3504332151514192e-32 -1.0
  outer loop
    vertex 2.403497536505574 -0.22382756541850565 -3.1999999999999997
    vertex 2.403497536505574 7.401813231876161 -3.1999999999999997
    vertex 3.520246775822976 8.258725062009384 -3.1999999999999997
  endloop
endfacet
facet normal -6.695173400734359e-32 2.3504332151514192e-32 -1.0
  outer loop
    vertex 2.403497536505574 -0.22382756541850565 -3.1999999999999997
    vertex 3.520246775822976 8.258725062009384 -3.1999999999999997
    vertex 3.5202467758229727 -1.0807393955517242 -3.1999999999999997
  endloop
endfacet
facet normal -6.695173400734359e-32 2.3504332151514192e-32 -1.0
  outer loop
    vertex 3.5202467758229727 -1.0807393955517242 -3.1999999999999997
    vertex 3.520246775822976 8.258725062009384 -3.1999999999999997
    vertex 4.820728809180459 -1.6194166913909371 -3.1999999999999997
  endloop
endfacet
facet normal -6.695173400734359e-32 2.3504332151514192e-32 -1.0
  outer loop
    vertex 4.820728809180459 -1.6194166913909371 -3.1999999999999997
    vertex 3.520246775822976 8.258725062009384 -3.1999999999999997
    vertex 4.820728809180461 8.797402357848592 -3.1999999999999997
  endloop
endfacet
facet normal -6.695173400734359e-32 2.3504332151514192e-32 -1.0
  outer loop
    vertex 4.820728809180459 -1.6194166913909371 -3.1999999999999997
    vertex 4.820728809180461 8.797402357848592 -3.1999999999999997
    vertex 6.216317935152899 -1.8031494854310188 -3.1999999999999997
  endloop
endfacet
facet normal -6.695173400734359e-32 2.3504332151514192e-32 -1.0
  outer loop
    vertex 6.216317935152899 -1.8031494854310188 -3.1999999999999997
    vertex 4.820728809180461 8.797402357848592 -3.1999999999999997
    vertex 6.216317935152897 8.98113515188867 -3.1999999999999997
  endloop
endfacet
facet normal -6.695173400734359e-32 2.3504332151514192e-32 -1.0
  outer loop
    vertex 6.216317935152899 -1.8031494854310188 -3.1999999999999997
    vertex 6.216317935152897 8.98113515188867 -3.1999999999999997
    vertex 7.6119070611253346 8.797402357848592 -3.1999999999999997
  endloop
endfacet
facet normal -6.695173400734359e-32 2.3504332151514192e-32 -1.0
  outer loop
    vertex 6.216317935152899 -1.8031494854310188 -3.1999999999999997
    vertex 7.6119070611253346 8.797402357848592 -3.1999999999999997
    vertex 7.611907061125339 -1.6194166913909378 -3.1999999999999997
  endloop
endfacet
facet normal -6.695173400734359e-32 2.3504332151514192e-32 -1.0
  outer loop
    vertex 7.611907061125339 -1.6194166913909378 -3.1999999999999997
    vertex 7.6119070611253346 8.797402357848592 -3.1999999999999997
    vertex 8.912389094482817 8.25872506200939 -3.1999999999999997
  endloop
endfacet
facet normal -6.695173400734359e-32 2.3504332151514192e-32 -1.0
  outer loop
    vertex 7.611907061125339 -1.6194166913909378 -3.1999999999999997
    vertex 8.912389094482817 8.25872506200939 -3.1999999999999997
    vertex 8.912389094482828 -1.0807393955517235 -3.1999999999999997
  endloop
endfacet
facet normal -6.695173400734359e-32 2.3504332151514192e-32 -1.0
  outer loop
    vertex 8.912389094482828 -1.0807393955517235 -3.1999999999999997
    vertex 8.912389094482817 8.25872506200939 -3.1999999999999997
    vertex 10.029138333800233 7.401813231876167 -3.1999999999999997
  endloop
endfacet
facet normal -6.695173400734359e-32 2.3504332151514192e-32 -1.0
  outer loop
    vertex 8.912389094482828 -1.0807393955517235 -3.1999999999999997
    vertex 10.029138333800233 7.401813231876167 -3.1999999999999997
    vertex 10.029138333800232 -0.22382756541850143 -3.1999999999999997
  endloop
endfacet
facet normal -6.695173400734359e-32 2.3504332151514192e-32 -1.0
  outer loop
    vertex 10.029138333800232 -0.22382756541850143 -3.1999999999999997
    vertex 10.029138333800233 7.401813231876167 -3.1999999999999997
    vertex 10.886050163933438 0.8929216738988982 -3.1999999999999997
  endloop
endfacet
facet normal -6.695173400734359e-32 2.3504332151514192e-32 -1.0
  outer loop
    vertex 10.886050163933438 0.8929216738988982 -3.1999999999999997
    vertex 10.029138333800233 7.401813231876167 -3.1999999999999997
    vertex 10.886050163933458 6.2850639925587455 -3.1999999999999997
  endloop
endfacet
facet normal -6.695173400734359e-32 2.3504332151514192e-32 -1.0
  outer loop
    vertex 10.886050163933438 0.8929216738988982 -3.1999999999999997
    vertex 10.886050163933458 6.2850639925587455 -3.1999999999999997
    vertex 11.424727459772663 2.1934037072563823 -3.1999999999999997
  endloop
endfacet
facet normal -6.695173400734359e-32 2.3504332151514192e-32 -1.0
  outer loop
    vertex 11.424727459772663 2.1934037072563823 -3.1999999999999997
    vertex 10.886050163933458 6.2850639925587455 -3.1999999999999997
    vertex 11.424727459772667 4.984581959201252 -3.1999999999999997
  endloop
endfacet
facet normal -6.695173400734359e-32 2.3504332151514192e-32 -1.0
  outer loop
    vertex 11.424727459772663 2.1934037072563823 -3.1999999999999997
    vertex 11.424727459772667 4.984581959201252 -3.1999999999999997
    vertex 11.608460253812746 3.5889928332288306 -3.1999999999999997
  endloop
endfacet
facet normal 6.695173400734359e-32 -2.3504332151514192e-32 1.0
  outer loop
    vertex 1.0079084105331328 2.1934037072563943 0.29999999999999943
    vertex 1.0079084105331344 4.984581959201266 0.29999999999999943
    vertex 0.8241756164930513 3.5889928332288275 0.29999999999999943
  endloop
endfacet
facet normal 6.695173400734359e-32 -2.3504332151514192e-32 1.0
  outer loop
    vertex 1.0079084105331344 4.984581959201266 0.29999999999999943
    vertex 1.0079084105331328 2.1934037072563943 0.29999999999999943
    vertex 1.546585706372345 0.8929216738988989 0.29999999999999943
  endloop
endfacet
facet normal 6.695173400734359e-32 -2.3504332151514192e-32 1.0
  outer loop
    vertex 1.0079084105331344 4.984581959201266 0.29999999999999943
    vertex 1.546585706372345 0.8929216738988989 0.29999999999999943
    vertex 1.5465857063723478 6.285063992558762 0.29999999999999943
  endloop
endfacet
facet normal 6.695173400734359e-32 -2.3504332151514192e-32 1.0
  outer loop
    vertex 1.5465857063723478 6.285063992558762 0.29999999999999943
    vertex 1.546585706372345 0.8929216738988989 0.29999999999999943
    vertex 2.403497536505574 -0.22382756541850565 0.29999999999999943
  endloop
endfacet
facet normal 6.695173400734359e-32 -2.3504332151514192e-32 1.0
  outer loop
    vertex 1.5465857063723478 6.285063992558762 0.29999999999999943
    vertex 2.403497536505574 -0.22382756541850565 0.29999999999999943
    vertex 2.403497536505574 7.401813231876161 0.29999999999999943
  endloop
endfacet
facet normal 6.695173400734359e-32 -2.3504332151514192e-32 1.0
  outer loop
    vertex 2.403497536505574 7.401813231876161 0.29999999999999943
    vertex 2.403497536505574 -0.22382756541850565 0.29999999999999943
    vertex 3.5202467758229727 -1.0807393955517242 0.29999999999999943
  endloop
endfacet
facet normal 6.695173400734359e-32 -2.3504332151514192e-32 1.0
  outer loop
    vertex 2.403497536505574 7.401813231876161 0.29999999999999943
    vertex 3.5202467758229727 -1.0807393955517242 0.29999999999999943
    vertex 3.520246775822976 8.258725062009384 0.29999999999999943
  endloop
endfacet
facet normal 6.695173400734359e-32 -2.3504332151514192e-32 1.0
  outer loop
    vertex 3.520246775822976 8.258725062009384 0.29999999999999943
    vertex 3.5202467758229727 -1.0807393955517242 0.29999999999999943
    vertex 4.820728809180459 -1.6194166913909371 0.29999999999999943
  endloop
endfacet
facet normal 6.695173400734359e-32 -2.3504332151514192e-32 1.0
  outer loop
    vertex 3.520246775822976 8.258725062009384 0.29999999999999943
    vertex 4.820728809180459 -1.6194166913909371 0.29999999999999943
    vertex 4.820728809180461 8.797402357848592 0.29999999999999943
  endloop
endfacet
facet normal 6.695173400734359e-32 -2.3504332151514192e-32 1.0
  outer loop
    vertex 4.820728809180461 8.797402357848592 0.29999999999999943
    vertex 4.820728809180459 -1.6194166913909371 0.29999999999999943
    vertex 6.216317935152899 -1.8031494854310188 0.29999999999999943
  endloop
endfacet
facet normal 6.695173400734359e-32 -2.3504332151514192e-32 1.0
  outer loop
    vertex 4.820728809180461 8.797402357848592 0.29999999999999943
    vertex 6.216317935152899 -1.8031494854310188 0.29999999999999943
    vertex 6.216317935152897 8.98113515188867 0.29999999999999943
  endloop
endfacet
facet normal 6.695173400734359e-32 -2.3504332151514192e-32 1.0
  outer loop
    vertex 6.216317935152897 8.98113515188867 0.29999999999999943
    vertex 6.216317935152899 -1.8031494854310188 0.29999999999999943
    vertex 7.6119070611253346 8.797402357848592 0.29999999999999943
  endloop
endfacet
facet normal 6.695173400734359e-32 -2.3504332151514192e-32 1.0
  outer loop
    vertex 7.6119070611253346 8.797402357848592 0.29999999999999943
    vertex 6.216317935152899 -1.8031494854310188 0.29999999999999943
    vertex 7.611907061125339 -1.6194166913909378 0.29999999999999943
  endloop
endfacet
facet normal 6.695173400734359e-32 -2.3504332151514192e-32 1.0
  outer loop
    vertex 7.6119070611253346 8.797402357848592 0.29999999999999943
    vertex 7.611907061125339 -1.6194166913909378 0.29999999999999943
    vertex 8.912389094482817 8.25872506200939 0.29999999999999943
  endloop
endfacet
facet normal 6.695173400734359e-32 -2.3504332151514192e-32 1.0
  outer loop
    vertex 8.912389094482817 8.25872506200939 0.29999999999999943
    vertex 7.611907061125339 -1.6194166913909378 0.29999999999999943
    vertex 8.912389094482828 -1.0807393955517235 0.29999999999999943
  endloop
endfacet
facet normal 6.695173400734359e-32 -2.3504332151514192e-32 1.0
  outer loop
    vertex 8.912389094482817 8.25872506200939 0.29999999999999943
    vertex 8.912389094482828 -1.0807393955517235 0.29999999999999943
    vertex 10.029138333800233 7.401813231876167 0.29999999999999943
  endloop
endfacet
facet normal 6.695173400734359e-32 -2.3504332151514192e-32 1.0
  outer loop
    vertex 10.029138333800233 7.401813231876167 0.29999999999999943
    vertex 8.912389094482828 -1.0807393955517235 0.29999999999999943
    vertex 10.029138333800232 -0.22382756541850143 0.29999999999999943
  endloop
endfacet
facet normal 6.695173400734359e-32 -2.3504332151514192e-32 1.0
  outer loop
    vertex 10.029138333800233 7.401813231876167 0.29999999999999943
    vertex 10.029138333800232 -0.22382756541850143 0.29999999999999943
    vertex 10.886050163933438 0.8929216738988982 0.29999999999999943
  endloop
endfacet
facet normal 6.695173400734359e-32 -2.3504332151514192e-32 1.0
  outer loop
    vertex 10.029138333800233 7.401813231876167 0.29999999999999943
    vertex 10.886050163933438 0.8929216738988982 0.29999999999999943
    vertex 10.886050163933458 6.2850639925587455 0.29999999999999943
  endloop
endfacet
facet normal 6.695173400734359e-32 -2.3504332151514192e-32 1.0
  outer loop
    vertex 10.886050163933458 6.2850639925587455 0.29999999999999943
    vertex 10.886050163933438 0.8929216738988982 0.29999999999999943
    vertex 11.424727459772663 2.1934037072563823 0.29999999999999943
  endloop
endfacet
facet normal 6.695173400734359e-32 -2.3504332151514192e-32 1.0
  outer loop
    vertex 10.886050163933458 6.2850639925587455 0.29999999999999943
    vertex 11.424727459772663 2.1934037072563823 0.29999999999999943
    vertex 11.424727459772667 4.984581959201252 0.29999999999999943
  endloop
endfacet
facet normal 6.695173400734359e-32 -2.3504332151514192e-32 1.0
  outer loop
    vertex 11.424727459772667 4.984581959201252 0.29999999999999943
    vertex 11.424727459772663 2.1934037072563823 0.29999999999999943
    vertex 11.608460253812746 3.5889928332288306 0.29999999999999943
  endloop
endfacet
facet normal -0.9659258262890684 0.2588190451025207 7.075377779575664e-32
  outer loop
    vertex 1.0079084105331344 4.984581959201266 0.29999999999999943
    vertex 0.8241756164930513 3.5889928332288275 -3.1999999999999997
    vertex 0.8241756164930513 3.5889928332288275 0.29999999999999943
  endloop
endfacet
facet normal -1.0 1.6931108801729119e-16 6.69517340073436e-32
  outer loop
    vertex 0.8241756164930513 3.5889928332288275 -3.1999999999999997
    vertex 1.0079084105331344 4.984581959201266 0.29999999999999943
    vertex 1.0079084105331344 4.984581959201266 -3.1999999999999997
  endloop
endfacet
facet normal -0.8660254037844374 0.5000000000000022 6.97340685535351e-32
  outer loop
    vertex 1.5465857063723478 6.285063992558762 0.29999999999999943
    vertex 1.0079084105331344 4.984581959201266 -3.1999999999999997
    vertex 1.0079084105331344 4.984581959201266 0.29999999999999943
  endloop
endfacet
facet normal -0.9659258262890684 0.2588190451025207 7.075377779575664e-32
  outer loop
    vertex 1.0079084105331344 4.984581959201266 -3.1999999999999997
    vertex 1.5465857063723478 6.285063992558762 0.29999999999999943
    vertex 1.5465857063723478 6.285063992558762 -3.1999999999999997
  endloop
endfacet
facet normal -0.7071067811865466 0.7071067811865485 6.396209778038726e-32
  outer loop
    vertex 2.403497536505574 7.401813231876161 0.29999999999999943
    vertex 1.5465857063723478 6.285063992558762 -3.1999999999999997
    vertex 1.5465857063723478 6.285063992558762 0.29999999999999943
  endloop
endfacet
facet normal -0.8660254037844374 0.5000000000000022 6.97340685535351e-32
  outer loop
    vertex 1.5465857063723478 6.285063992558762 -3.1999999999999997
    vertex 2.403497536505574 7.401813231876161 0.29999999999999943
    vertex 2.403497536505574 7.401813231876161 -3.1999999999999997
  endloop
endfacet
facet normal -0.7071067811865466 0.7071067811865485 6.396209778038726e-32
  outer loop
    vertex 2.403497536505574 7.401813231876161 0.29999999999999943
    vertex 3.520246775822976 8.258725062009384 -3.1999999999999997
    vertex 2.403497536505574 7.401813231876161 -3.1999999999999997
  endloop
endfacet
facet normal -0.5000000000000006 0.8660254037844384 5.383121574587047e-32
  outer loop
    vertex 3.520246775822976 8.258725062009384 -3.1999999999999997
    vertex 2.403497536505574 7.401813231876161 0.29999999999999943
    vertex 3.520246775822976 8.258725062009384 0.29999999999999943
  endloop
endfacet
facet normal -0.5000000000000006 0.8660254037844384 5.383121574587047e-32
  outer loop
    vertex 3.520246775822976 8.258725062009384 0.29999999999999943
    vertex 4.820728809180461 8.797402357848592 -3.1999999999999997
    vertex 3.520246775822976 8.258725062009384 -3.1999999999999997
  endloop
endfacet
facet normal -0.25881904510251813 0.965925826289069 4.003182531856253e-32
  outer loop
    vertex 4.820728809180461 8.797402357848592 -3.1999999999999997
    vertex 3.520246775822976 8.258725062009384 0.29999999999999943
    vertex 4.820728809180461 8.797402357848592 0.29999999999999943
  endloop
endfacet
facet normal -0.25881904510251813 0.965925826289069 4.003182531856253e-32
  outer loop
    vertex 4.820728809180461 8.797402357848592 0.29999999999999943
    vertex 6.216317935152897 8.98113515188867 -3.1999999999999997
    vertex 4.820728809180461 8.797402357848592 -3.1999999999999997
  endloop
endfacet
facet normal -6.237776926952832e-17 1.0 2.3504332151514203e-32
  outer loop
    vertex 6.216317935152897 8.98113515188867 -3.1999999999999997
    vertex 4.820728809180461 8.797402357848592 0.29999999999999943
    vertex 6.216317935152897 8.98113515188867 0.29999999999999943
  endloop
endfacet
facet normal -6.237776926952832e-17 1.0 2.3504332151514203e-32
  outer loop
    vertex 6.216317935152897 8.98113515188867 0.29999999999999943
    vertex 7.6119070611253346 8.797402357848592 -3.1999999999999997
    vertex 6.216317935152897 8.98113515188867 -3.1999999999999997
  endloop
endfacet
facet normal 0.25881904510251724 0.9659258262890694 5.375057591085689e-33
  outer loop
    vertex 7.6119070611253346 8.797402357848592 -3.1999999999999997
    vertex 6.216317935152897 8.98113515188867 0.29999999999999943
    vertex 7.6119070611253346 8.797402357848592 0.29999999999999943
  endloop
endfacet
facet normal 0.25881904510251724 0.9659258262890694 5.375057591085689e-33
  outer loop
    vertex 7.6119070611253346 8.797402357848592 0.29999999999999943
    vertex 8.912389094482817 8.25872506200939 -3.1999999999999997
    vertex 7.6119070611253346 8.797402357848592 -3.1999999999999997
  endloop
endfacet
facet normal 0.4999999999999972 0.8660254037844403 -1.312051826147293e-32
  outer loop
    vertex 8.912389094482817 8.25872506200939 -3.1999999999999997
    vertex 7.6119070611253346 8.797402357848592 0.29999999999999943
    vertex 8.912389094482817 8.25872506200939 0.29999999999999943
  endloop
endfacet
facet normal 0.4999999999999972 0.8660254037844403 -1.312051826147293e-32
  outer loop
    vertex 8.912389094482817 8.25872506200939 0.29999999999999943
    vertex 10.029138333800233 7.401813231876167 -3.1999999999999997
    vertex 8.912389094482817 8.25872506200939 -3.1999999999999997
  endloop
endfacet
facet normal 0.707106781186548 0.707106781186547 -3.072195247719399e-32
  outer loop
    vertex 10.029138333800233 7.401813231876167 -3.1999999999999997
    vertex 8.912389094482817 8.25872506200939 0.29999999999999943
    vertex 10.029138333800233 7.401813231876167 0.29999999999999943
  endloop
endfacet
facet normal 0.707106781186548 0.707106781186547 -3.072195247719399e-32
  outer loop
    vertex 10.029138333800233 7.401813231876167 -3.1999999999999997
    vertex 10.886050163933458 6.2850639925587455 0.29999999999999943
    vertex 10.886050163933458 6.2850639925587455 -3.1999999999999997
  endloop
endfacet
facet normal 0.8660254037844405 0.4999999999999969 -4.6229736402021164e-32
  outer loop
    vertex 10.886050163933458 6.2850639925587455 0.29999999999999943
    vertex 10.029138333800233 7.401813231876167 -3.1999999999999997
    vertex 10.029138333800233 7.401813231876167 0.29999999999999943
  endloop
endfacet
facet normal 0.8660254037844405 0.4999999999999969 -4.6229736402021164e-32
  outer loop
    vertex 10.886050163933458 6.2850639925587455 -3.1999999999999997
    vertex 11.424727459772667 4.984581959201252 0.29999999999999943
    vertex 11.424727459772667 4.984581959201252 -3.1999999999999997
  endloop
endfacet
facet normal 0.9659258262890689 0.25881904510251924 -5.858704018930196e-32
  outer loop
    vertex 11.424727459772667 4.984581959201252 0.29999999999999943
    vertex 10.886050163933458 6.2850639925587455 -3.1999999999999997
    vertex 10.886050163933458 6.2850639925587455 0.29999999999999943
  endloop
endfacet
facet normal 0.9659258262890689 0.25881904510251924 -5.858704018930196e-32
  outer loop
    vertex 11.424727459772667 4.984581959201252 -3.1999999999999997
    vertex 11.608460253812746 3.5889928332288306 0.29999999999999943
    vertex 11.608460253812746 3.5889928332288306 -3.1999999999999997
  endloop
endfacet
facet normal 1.0 1.960444177042319e-16 -6.695173400734357e-32
  outer loop
    vertex 11.608460253812746 3.5889928332288306 0.29999999999999943
    vertex 11.424727459772667 4.984581959201252 -3.1999999999999997
    vertex 11.424727459772667 4.984581959201252 0.29999999999999943
  endloop
endfacet
facet normal 1.0 1.960444177042319e-16 -6.695173400734357e-32
  outer loop
    vertex 11.608460253812746 3.5889928332288306 -3.1999999999999997
    vertex 11.424727459772663 2.1934037072563823 0.29999999999999943
    vertex 11.424727459772663 2.1934037072563823 -3.1999999999999997
  endloop
endfacet
facet normal 0.9659258262890673 -0.25881904510252507 -7.075377779575669e-32
  outer loop
    vertex 11.424727459772663 2.1934037072563823 0.29999999999999943
    vertex 11.608460253812746 3.5889928332288306 -3.1999999999999997
    vertex 11.608460253812746 3.5889928332288306 0.29999999999999943
  endloop
endfacet
facet normal 0.9659258262890673 -0.25881904510252507 -7.075377779575669e-32
  outer loop
    vertex 11.424727459772663 2.1934037072563823 -3.1999999999999997
    vertex 10.886050163933438 0.8929216738988982 0.29999999999999943
    vertex 10.886050163933438 0.8929216738988982 -3.1999999999999997
  endloop
endfacet
facet normal 0.8660254037844374 -0.5000000000000022 -6.973406855353511e-32
  outer loop
    vertex 10.886050163933438 0.8929216738988982 0.29999999999999943
    vertex 11.424727459772663 2.1934037072563823 -3.1999999999999997
    vertex 11.424727459772663 2.1934037072563823 0.29999999999999943
  endloop
endfacet
facet normal 0.8660254037844374 -0.5000000000000022 -6.973406855353511e-32
  outer loop
    vertex 10.886050163933438 0.8929216738988982 -3.1999999999999997
    vertex 10.029138333800232 -0.22382756541850143 0.29999999999999943
    vertex 10.029138333800232 -0.22382756541850143 -3.1999999999999997
  endloop
endfacet
facet normal 0.7071067811865499 -0.7071067811865451 -6.396209778038742e-32
  outer loop
    vertex 10.029138333800232 -0.22382756541850143 0.29999999999999943
    vertex 10.886050163933438 0.8929216738988982 -3.1999999999999997
    vertex 10.886050163933438 0.8929216738988982 0.29999999999999943
  endloop
endfacet
facet normal 0.7071067811865499 -0.7071067811865451 -6.396209778038742e-32
  outer loop
    vertex 10.029138333800232 -0.22382756541850143 0.29999999999999943
    vertex 8.912389094482828 -1.0807393955517235 -3.1999999999999997
    vertex 10.029138333800232 -0.22382756541850143 -3.1999999999999997
  endloop
endfacet
facet normal 0.5000000000000019 -0.8660254037844377 -5.383121574587053e-32
  outer loop
    vertex 8.912389094482828 -1.0807393955517235 -3.1999999999999997
    vertex 10.029138333800232 -0.22382756541850143 0.29999999999999943
    vertex 8.912389094482828 -1.0807393955517235 0.29999999999999943
  endloop
endfacet
facet normal 0.5000000000000019 -0.8660254037844377 -5.383121574587053e-32
  outer loop
    vertex 8.912389094482828 -1.0807393955517235 0.29999999999999943
    vertex 7.611907061125339 -1.6194166913909378 -3.1999999999999997
    vertex 8.912389094482828 -1.0807393955517235 -3.1999999999999997
  endloop
endfacet
facet normal 0.25881904510252096 -0.9659258262890682 -4.003182531856271e-32
  outer loop
    vertex 7.611907061125339 -1.6194166913909378 -3.1999999999999997
    vertex 8.912389094482828 -1.0807393955517235 0.29999999999999943
    vertex 7.611907061125339 -1.6194166913909378 0.29999999999999943
  endloop
endfacet
facet normal 0.25881904510252096 -0.9659258262890682 -4.003182531856271e-32
  outer loop
    vertex 7.611907061125339 -1.6194166913909378 0.29999999999999943
    vertex 6.216317935152899 -1.8031494854310188 -3.1999999999999997
    vertex 7.611907061125339 -1.6194166913909378 -3.1999999999999997
  endloop
endfacet
facet normal -2.1386663749552568e-16 -1.0 -2.3504332151514176e-32
  outer loop
    vertex 6.216317935152899 -1.8031494854310188 -3.1999999999999997
    vertex 7.611907061125339 -1.6194166913909378 0.29999999999999943
    vertex 6.216317935152899 -1.8031494854310188 0.29999999999999943
  endloop
endfacet
facet normal -2.1386663749552568e-16 -1.0 -2.3504332151514176e-32
  outer loop
    vertex 6.216317935152899 -1.8031494854310188 0.29999999999999943
    vertex 4.820728809180459 -1.6194166913909371 -3.1999999999999997
    vertex 6.216317935152899 -1.8031494854310188 -3.1999999999999997
  endloop
endfacet
facet normal -0.25881904510252124 -0.9659258262890683 -5.375057591085395e-33
  outer loop
    vertex 4.820728809180459 -1.6194166913909371 -3.1999999999999997
    vertex 6.216317935152899 -1.8031494854310188 0.29999999999999943
    vertex 4.820728809180459 -1.6194166913909371 0.29999999999999943
  endloop
endfacet
facet normal -0.25881904510252124 -0.9659258262890683 -5.375057591085395e-33
  outer loop
    vertex 4.820728809180459 -1.6194166913909371 0.29999999999999943
    vertex 3.5202467758229727 -1.0807393955517242 -3.1999999999999997
    vertex 4.820728809180459 -1.6194166913909371 -3.1999999999999997
  endloop
endfacet
facet normal -0.5000000000000016 -0.8660254037844378 1.3120518261473273e-32
  outer loop
    vertex 3.5202467758229727 -1.0807393955517242 -3.1999999999999997
    vertex 4.820728809180459 -1.6194166913909371 0.29999999999999943
    vertex 3.5202467758229727 -1.0807393955517242 0.29999999999999943
  endloop
endfacet
facet normal -0.5000000000000016 -0.8660254037844378 1.3120518261473273e-32
  outer loop
    vertex 3.5202467758229727 -1.0807393955517242 0.29999999999999943
    vertex 2.403497536505574 -0.22382756541850565 -3.1999999999999997
    vertex 3.5202467758229727 -1.0807393955517242 -3.1999999999999997
  endloop
endfacet
facet normal -0.7071067811865462 -0.7071067811865489 3.072195247719384e-32
  outer loop
    vertex 2.403497536505574 -0.22382756541850565 -3.1999999999999997
    vertex 3.5202467758229727 -1.0807393955517242 0.29999999999999943
    vertex 2.403497536505574 -0.22382756541850565 0.29999999999999943
  endloop
endfacet
facet normal -0.8660254037844378 -0.5000000000000017 4.622973640202087e-32
  outer loop
    vertex 1.546585706372345 0.8929216738988989 0.29999999999999943
    vertex 2.403497536505574 -0.22382756541850565 -3.1999999999999997
    vertex 2.403497536505574 -0.22382756541850565 0.29999999999999943
  endloop
endfacet
facet normal -0.7071067811865462 -0.7071067811865489 3.072195247719384e-32
  outer loop
    vertex 2.403497536505574 -0.22382756541850565 -3.1999999999999997
    vertex 1.546585706372345 0.8929216738988989 0.29999999999999943
    vertex 1.546585706372345 0.8929216738988989 -3.1999999999999997
  endloop
endfacet
facet normal -0.9659258262890685 -0.25881904510251996 5.858704018930193e-32
  outer loop
    vertex 1.0079084105331328 2.1934037072563943 0.29999999999999943
    vertex 1.546585706372345 0.8929216738988989 -3.1999999999999997
    vertex 1.546585706372345 0.8929216738988989 0.29999999999999943
  endloop
endfacet
facet normal -0.8660254037844378 -0.5000000000000017 4.622973640202087e-32
  outer loop
    vertex 1.546585706372345 0.8929216738988989 -3.1999999999999997
    vertex 1.0079084105331328 2.1934037072563943 0.29999999999999943
    vertex 1.0079084105331328 2.1934037072563943 -3.1999999999999997
  endloop
endfacet
facet normal -1.0 1.6931108801729119e-16 6.69517340073436e-32
  outer loop
    vertex 0.8241756164930513 3.5889928332288275 0.29999999999999943
    vertex 1.0079084105331328 2.1934037072563943 -3.1999999999999997
    vertex 1.0079084105331328 2.1934037072563943 0.29999999999999943
  endloop
endfacet
facet normal -0.9659258262890685 -0.25881904510251996 5.858704018930193e-32
  outer loop
    vertex 1.0079084105331328 2.1934037072563943 -3.1999999999999997
    vertex 0.8241756164930513 3.5889928332288275 0.29999999999999943
    vertex 0.8241756164930513 3.5889928332288275 -3.1999999999999997
  endloop
endfacet
endsolid AnnenometerWire
